<svg width="421" height="182" viewBox="0 0 421 182" fill="none" xmlns="http://www.w3.org/2000/svg">
<mask id="path-1-inside-1_3_34" fill="white">
<path fill-rule="evenodd" clip-rule="evenodd" d="M14.5 162L60.5 144L94.5 181.5L153 144L206 181.5L263 144L300 181.5L330.5 153L404.5 133.5L421 103.5L398 71.5L376.5 39.5L300 18H179.5L108.5 0.5L36 18L0.5 71.5L14.5 162Z"/>
</mask>
<path d="M14.5 162C29.8444 156.028 45.1882 150.055 60.5316 144.081L60.4359 144.058C61.5682 145.311 62.7005 146.564 63.8328 147.817C74.0132 159.083 84.1944 170.348 94.3764 181.612C94.4294 181.671 94.5234 181.683 94.59 181.64C114.109 169.17 133.626 156.697 153.142 144.221L152.848 144.215C170.499 156.737 188.151 169.257 205.805 181.776C205.907 181.848 206.082 181.851 206.186 181.782C225.199 169.302 244.21 156.82 263.221 144.335L262.714 144.282C275.037 156.792 287.362 169.301 299.687 181.809C299.857 181.981 300.123 181.986 300.3 181.821C310.473 172.328 320.645 162.833 330.816 153.339L330.618 153.448C355.288 146.96 379.957 140.469 404.625 133.975C404.723 133.949 404.882 133.826 404.931 133.737C410.433 123.738 415.935 113.739 421.436 103.74C421.517 103.594 421.501 103.345 421.404 103.21C414.249 93.2521 407.093 83.2951 399.937 73.3386C399.427 72.6284 398.916 71.9183 398.406 71.2082L398.415 71.2212C391.248 60.5546 384.081 49.8884 376.913 39.2227C376.865 39.1521 376.716 39.0444 376.635 39.0214C351.134 31.8583 325.632 24.6986 300.129 17.5423C300.103 17.535 300.027 17.5245 300 17.5245C259.833 17.5409 219.667 17.5654 179.5 17.598L179.596 17.6097C155.925 11.7956 132.253 5.98443 108.58 0.17617C108.546 0.167718 108.456 0.167574 108.422 0.175789C84.2613 6.03473 60.1015 11.8967 35.9425 17.7617C35.8983 17.7723 35.8209 17.8267 35.7957 17.8645C23.9858 35.7133 12.1778 53.5634 0.371673 71.4148C0.356119 71.4382 0.343554 71.4958 0.347802 71.5235C2.25775 83.7464 4.16847 95.9691 6.07995 108.192C8.88498 126.128 11.6917 144.064 14.5 162C11.7576 144.054 9.01346 126.108 6.26771 108.163C4.39664 95.9339 2.5248 83.7051 0.652198 71.4765L0.628327 71.5852C12.4889 53.7699 24.3475 35.9534 36.2043 18.1355L36.0575 18.2383C60.2318 12.4366 84.4054 6.63194 108.578 0.824211L108.42 0.82383C132.081 6.68224 155.742 12.5377 179.404 18.3903C179.423 18.3951 179.48 18.402 179.5 18.402C219.667 18.4346 259.833 18.4591 300 18.4755L299.871 18.4577C325.368 25.6348 350.866 32.8084 376.365 39.9786L376.087 39.7773C383.253 50.4449 390.418 61.1121 397.585 71.7788C397.587 71.7815 397.592 71.7892 397.594 71.7918C398.104 72.5019 398.615 73.2121 399.125 73.9222C406.281 83.8787 413.438 93.8348 420.596 103.79L420.564 103.26C415.065 113.261 409.567 123.262 404.069 133.263L404.375 133.025C379.71 139.531 355.045 146.04 330.382 152.552C330.333 152.565 330.221 152.627 330.184 152.661C320.022 162.167 309.86 171.672 299.7 181.179L300.313 181.191C287.972 168.699 275.629 156.208 263.286 143.718C263.157 143.587 262.933 143.564 262.779 143.665C243.79 156.18 224.801 168.698 205.814 181.218L206.195 181.224C188.515 168.743 170.834 156.263 153.152 143.785C153.074 143.73 152.938 143.727 152.858 143.779C133.374 156.303 113.891 168.83 94.41 181.36L94.6236 181.388C84.4077 170.154 74.1911 158.922 63.9736 147.69C62.8371 146.44 61.7006 145.191 60.5641 143.942C60.5424 143.918 60.4985 143.908 60.4684 143.919C45.1451 149.945 29.8223 155.972 14.5 162Z" fill="white" mask="url(#path-1-inside-1_3_34)"/>
</svg>
