<svg width="84" height="11" viewBox="0 0 84 11" fill="none" xmlns="http://www.w3.org/2000/svg">
<path d="M1.13406 7.18203C4.03485 5.10451 4.46368 4.89063 5.00106 4.5682C5.7758 4.10336 6.82601 3.56652 7.8121 3.11727C8.01127 3.02654 8.11787 2.95606 8.19042 3.07912C8.42162 3.47131 8.05124 5.48175 7.62133 8.04237C7.4656 8.96995 7.47517 9.14884 7.51063 9.187C7.5967 9.27958 9.39254 8.01604 12.0606 6.42271C13.955 5.29145 15.2457 4.31886 15.8363 3.83575C16.1916 3.54514 16.2882 5.65479 16.6429 8.59695C16.772 9.66815 18.686 7.29165 19.1509 6.80962C19.6424 6.29991 20.5077 5.0411 21.9915 3.46764C23.2509 2.13204 24.0254 1.52232 24.2399 1.52125C24.3685 1.5206 24.4543 1.80391 24.5091 3.06622C24.5639 4.32853 24.5639 6.6339 25.2023 7.2895C26.5685 8.6925 28.6813 5.46563 29.2348 4.87558C30.2498 3.79361 31.0447 3.31503 31.9583 2.52776C32.1826 2.33445 32.4054 2.24027 32.5682 2.14999C32.731 2.05971 32.8374 1.98877 33.0164 2.5729C34.0479 5.94007 34.2002 6.99932 34.5216 7.41418C34.7417 7.69836 35.9478 6.40282 37.3262 4.9175C38.0942 4.08985 38.4617 3.52998 39.0861 2.94155C39.473 2.57697 39.9588 2.03391 40.6047 2.87706C41.2507 3.72021 42.0309 5.95465 42.4861 7.15892C42.9413 8.36319 43.0477 8.46959 43.4749 8.06333C43.9021 7.65707 44.6469 6.73492 45.5626 5.81654C47.4542 3.91936 48.9578 2.88512 49.5301 2.8819C50.4811 2.87654 50.2142 5.13245 50.3926 6.40282C50.5104 7.24143 50.8591 7.89459 51.1084 8.34384C51.1996 8.50818 51.5705 8.11922 52.2487 7.29918C52.9269 6.47913 53.9909 5.13138 54.6809 4.29521C55.9671 2.7366 56.3758 2.49069 56.7144 2.39933C58.2544 1.98377 58.4512 4.91857 58.9187 5.74668C59.3248 6.46602 60.2417 6.99717 60.6749 7.87793C60.7534 8.0377 60.8178 8.14716 61.014 8.14878C62.341 8.15968 63.6423 6.29212 64.5779 5.50056C65.5442 4.68301 67.7565 3.32363 68.7705 2.38321C68.9024 2.26087 69.0913 2.20372 69.2359 2.55732C70.1008 4.67298 69.6319 5.56881 69.7389 5.76549C69.8535 5.97639 70.1682 6.10619 70.4541 6.2674C70.7077 6.41039 71.631 6.10941 73.0432 5.57418C74.3933 5.0625 75.5722 3.50096 76.7178 2.19298C77.1175 1.73671 77.2961 1.8426 77.5642 2.73036C78.337 5.28872 78.7309 7.25189 78.8921 7.64471C78.9765 7.85041 78.9469 8.10847 79.1597 7.9349C79.9387 7.29951 80.6268 5.68596 81.342 4.20117C81.9154 3.17746 82.3131 2.63363 82.5458 2.36548C82.6366 2.23919 82.672 2.13279 82.7086 2.02316" stroke="white" stroke-width="2" stroke-linecap="round"/>
</svg>
