<svg width="340" height="149" viewBox="0 0 340 149" fill="none" xmlns="http://www.w3.org/2000/svg">
<path d="M24.9552 82.6461C25.118 84.81 24.7776 87.6356 24.3256 89.7862C24.1851 90.4601 23.7856 90.0855 23.668 90.5493C23.4374 91.4509 23.5736 92.3313 23.2901 93.2303C23.1937 93.529 22.562 93.0854 22.4761 93.3979C22.0066 95.1052 21.9809 96.7753 21.4964 98.6478C21.2571 99.557 20.9969 100.482 20.6319 101.52C20.1813 102.602 20.0692 103.573 18.3655 105.665C16.3944 107.884 13.6485 108.077 12.3252 107.913C10.8622 107.748 9.89631 107.35 9.02134 106.942C7.30898 106.102 6.03634 105.113 4.81685 103.856C1.89267 100.55 0.407886 97.0653 0.844516 92.2439C1.16403 89.4848 2.91037 86.8043 4.92755 85.3441C6.19614 84.3812 7.66093 83.7645 9.09118 83.3881C11.384 82.7944 13.8529 82.5677 16.0682 82.385C16.4737 82.3511 16.2322 81.763 16.3101 81.7141C17.5729 80.989 17.1308 82.1745 17.8997 82.3783C20.962 83.2147 23.9942 84.223 26.5676 85.0851C27.6575 85.4545 27.081 83.9161 27.8733 84.996C27.9271 85.0698 27.4023 85.517 27.6575 85.7086C28.2342 86.1369 29.4578 86.628 29.9032 86.9227C30.7595 87.4895 30.9065 87.5651 31.7345 88.0381C32.8595 88.6904 34.0039 89.7337 35.2298 90.3045C35.4926 90.4247 35.4971 89.6788 35.9457 89.8208C36.3956 89.964 37.3942 90.6265 37.6593 90.9594C37.9255 91.2935 37.5222 91.6406 37.5241 91.7763C37.5324 92.9181 39.3938 92.4338 39.5549 92.4844C41.3448 93.1138 42.7356 93.9903 44.1335 94.7863C45.1119 95.3406 46.1166 95.8741 47.2249 96.2641C49.292 96.9923 51.6296 97.3737 53.6647 97.8502C56.0891 98.4183 58.1484 99.0866 60.5856 99.2618C60.8417 99.2801 60.6129 98.5012 60.9232 98.5211C64.1451 98.7201 67.3095 98.8208 70.495 98.9705C70.4847 98.9819 70.4728 98.9941 70.4602 99.0072C70.4126 99.0699 70.5967 99.7085 70.6193 99.7966C70.6649 99.922 70.8404 100.081 71.1662 99.9513C71.4822 99.8328 71.8479 99.4628 72.0583 98.9993C72.4896 98.0617 72.3352 96.8622 71.0202 96.0669C71.3689 94.8781 71.659 93.2545 72.3311 92.0514C72.7626 91.2751 73.429 92.1109 73.1876 91.0865C73.133 90.8564 72.4843 91.111 72.4495 90.7703C72.3028 89.3352 72.5633 87.7677 72.2788 86.3135C72.2195 86.0179 71.6509 86.0818 71.5514 85.9957C70.7456 85.2755 72.1418 84.1387 72.2482 83.8832C72.5644 83.1132 72.716 82.4146 72.7911 81.7429C72.7894 80.4411 73.8005 78.821 74.7564 78.2622C75.7416 77.6095 76.5373 77.4235 77.282 77.285C77.885 77.1929 77.0545 76.5501 77.6374 76.4424C80.4363 76.0225 82.6876 76.3877 84.7857 76.9288C85.2656 77.0591 84.7451 77.6536 84.9703 77.7489C85.8784 78.1545 86.2812 76.9715 87.1757 77.3522C87.3615 77.4308 87.1816 77.967 87.209 78.032C87.6329 79.0514 88.3051 77.7748 88.4576 77.7653C90.3187 77.6065 91.2644 79.1744 93.0451 79.2293C93.2521 79.2337 92.8935 78.4724 93.4704 78.5272C97.3687 78.8985 101.424 79.671 105.18 80.6858C105.76 80.8422 105.277 81.3154 105.306 81.3845C105.79 82.4652 106.345 81.159 106.544 81.1303C108.13 80.9416 109.417 82.2234 110.634 80.714C117.05 81.9098 123.504 81.3504 129.93 82.7242C130.012 82.74 129.873 83.4121 130.037 83.4407C132.015 83.7855 131.633 82.7472 132.878 81.4359C133.187 81.1066 134.235 82.6043 134.332 82.7122C134.672 83.1131 134.382 84.124 134.494 84.1997C135.424 84.789 135.128 81.5038 136.304 81.4359C136.342 81.4393 136.221 82.0544 136.325 82.1088C136.646 82.2797 136.94 82.0197 137.258 82.2081C137.984 82.6436 138.364 84.2251 139.366 83.2087C139.491 83.0762 139.134 81.232 140.195 81.227C140.618 81.2298 142.488 81.0084 143.017 81.0659C143.551 81.1263 143.264 81.7662 143.303 81.7879C144.811 82.4117 144.316 82.8023 145.184 83.8819C146.036 84.92 145.525 82.3625 145.718 81.8879C145.724 81.873 145.731 81.8601 145.738 81.8495C145.991 81.5008 147.131 82.0033 147.421 82.191C147.711 82.3795 147.446 82.8057 147.694 82.9C149.334 83.5093 148.148 81.4242 148.574 80.9092C149.545 79.6922 150.816 81.5899 151.918 81.6048C152.216 81.6085 151.899 81.1832 152.148 81.0945C153.122 80.7497 153.862 81.2736 154.909 80.4646C155.083 80.3325 155.761 78.9239 156.535 79.6999C156.646 79.8121 156.512 80.3693 156.961 80.3945C157.649 80.4303 158.844 80.2872 159.491 79.9623C159.969 79.7225 159.201 79.0217 159.894 79.1355C160.201 79.1862 159.792 79.7934 160.362 79.8473C160.934 79.902 162.307 79.5489 162.813 79.4031C163.322 79.2575 162.883 78.6997 162.914 78.647C163.103 78.3427 163.996 77.7903 164.089 77.7661C168.415 76.5509 172.731 76.3507 176.767 74.5013C177.085 74.3561 176.632 73.7941 176.678 73.7654C177.69 73.0882 177.442 75.1157 178.435 75.3947C177.837 74.1383 178.386 74.2032 179.101 73.7655C179.451 73.5509 179.053 73.1292 179.067 73.0648C179.331 72.0888 180.097 72.9174 180.278 73.0778C180.939 73.6684 180.988 72.6394 181.433 73.0304C181.879 73.4166 181.6 74.3717 182.338 74.0603C182.356 73.5165 181.319 72.5403 181.798 72.1169C183.614 70.5294 187.896 69.7064 189.59 68.9831C191.307 68.2614 191.763 67.92 192.814 67.5805C194.683 66.97 193.594 66.4535 194.449 65.4959C195.293 64.5373 195.914 66.8923 196.311 67.2561C196.706 67.6199 196.618 67.0709 196.938 67.2133C197.259 67.3555 197.024 67.8806 197.512 67.7308C198.009 67.5774 198.77 66.1071 198.652 65.5598C198.415 64.3953 197.29 63.6804 198.636 63.3816C198.714 63.3646 198.814 64.0268 199.097 63.9346C201.312 63.1995 203.395 61.9572 205.56 61.0763C205.861 60.9541 205.993 61.6914 206.173 61.6266C208.035 60.9557 206.822 60.3466 206.997 58.6841C207.746 60.2559 208.808 60.8268 210.045 60.0164C210.788 59.5294 210.24 58.988 210.413 58.2324C210.458 58.0091 211.276 58.0819 211.169 57.7258C210.827 56.5579 209.623 55.8082 211.145 55.3988C211.212 55.3823 211.397 56.0239 211.606 55.9281C212.983 55.2934 212.426 54.2047 213.668 53.1744C214.636 52.3701 216.9 51.7132 218.166 51.0104C219.226 52.6351 220.086 51.5264 219.825 50.1003C220.489 49.7204 221.189 49.2191 221.885 48.8919C222.035 48.8204 222.185 48.7562 222.336 48.7013C222.641 48.5905 222.752 49.1801 222.818 49.2112C223.816 49.7216 223.518 48.3947 223.673 48.2477C225.395 46.7107 227.45 46.8312 229.04 45.143C229.095 45.0838 228.715 43.7813 229.611 44.4882C229.668 44.5391 229.239 45.3624 230.186 45.0475C231.141 44.7283 233.124 44.8041 234.238 43.8059C234.506 43.5636 234.997 42.2684 235.886 42.8981C236.004 42.9841 236.02 43.3825 236.204 43.5524C236.794 44.0934 236.632 42.7219 237.421 43.6992C238.207 44.6773 239.406 45.2388 240.503 44.1034C240.539 44.0693 240.557 42.9431 240.976 42.8434C241.64 42.6868 242.638 42.6389 243.322 42.4342C243.649 42.3359 243.253 41.7524 243.306 41.7242C245.401 40.7234 247.126 40.8249 249.536 40.2714C249.988 40.1683 250.879 38.881 251.95 39.2464C251.97 39.2532 251.99 39.2608 252.009 39.2692C252.02 39.2644 252.055 39.2564 252.067 39.254C253.071 39.9644 252.66 43.24 254.693 42.1318C255.53 41.6783 255.959 37.3769 257.894 39.2436C260.864 38.1957 263.891 38.7784 266.81 37.4408C266.942 37.381 267.157 36.1528 267.481 36.1061C267.96 36.0392 268.333 36.5212 268.681 36.4892C270.147 36.367 271.361 35.644 272.754 35.4243C273.28 35.3398 273.213 35.9301 273.847 35.8267C274.477 35.7229 274.736 34.9079 275.654 35.0714C276.351 35.1961 277.317 36.5326 278.215 36.5061C277.909 35.0416 278.5 34.938 279.433 34.3083C279.611 34.1868 279.28 33.7311 279.357 33.6476C279.676 33.2951 280.13 33.6284 280.416 33.2569C280.486 33.1674 280.366 32.6709 280.418 32.5694C280.846 31.6895 282.115 32.5503 282.34 32.6981C283.179 33.2649 283.332 32.5367 283.903 32.6926C284.487 32.8441 283.826 33.411 284.468 33.4247C285.789 33.4549 287.34 32.9206 288.579 32.5536C289.075 32.4035 288.532 31.8602 288.598 31.8236C289.55 31.3414 290.804 31.6756 290.898 30.1964C291.369 30.9642 291.638 31.31 291.797 31.4021C292.27 31.6792 291.793 29.6946 293.041 29.8057C293.173 29.8189 293.874 31.3315 293.528 31.7145C293.228 32.0462 292.569 31.8996 292.094 32.229C292.029 32.2773 291.959 32.3399 291.895 32.4171C291.788 32.5532 291.458 34.3199 291.368 34.4489C290.679 35.4622 289.78 33.1401 289.69 33.0273C288.706 31.8034 288.202 33.7146 287.958 33.9084C286.873 34.7907 285.718 34.7531 284.777 35.4011C284.165 35.8199 284.512 37.4088 283.955 37.5036C282.107 37.8131 280.959 35.7596 279.731 38.0744C279.467 38.5672 280.226 40.2159 278.61 39.1571C278.504 39.0916 277.263 38.065 276.879 38.9784C276.831 39.0936 276.945 39.5985 276.863 39.6615C276.31 40.0729 275.796 39.7635 275.169 40.1012C274.534 40.4407 273.784 40.9008 272.971 40.8903C272.487 40.8838 271.695 40.0614 271.425 39.8754C270.669 39.3351 270.209 40.5646 269.664 39.8327C269.113 39.0976 269.63 37.7143 268.507 37.3903C268.728 38.7175 268.907 40.0893 269.105 41.4288C266.835 41.8247 264.54 41.8092 262.285 42.271C262.006 42.3296 262.42 42.9904 262.123 43.0715C260.871 43.41 259.672 43.0945 258.388 43.52C257.394 43.852 256.397 44.7932 255.358 45.1573C254.721 44.16 253.789 44.2504 252.879 44.4036L253.856 44.1444C253.478 44.2919 253.111 44.4453 252.763 44.528C252.344 44.6288 252.231 44.2323 251.902 44.2075C250.674 44.116 251.618 45.2237 251.393 45.5294C250.412 46.8308 249.32 43.9515 247.879 44.4911C247.801 44.5199 247.331 46.3844 247.222 46.5234C246.566 47.4187 246.914 46.0204 246.353 46.0629C245.325 46.1392 244.557 45.9544 243.57 46.735C243.286 46.9638 242.781 48.1687 241.94 47.5823C241.83 47.5056 241.729 46.9706 241.654 46.9585C240.315 46.7833 240.745 48.4324 240.227 49.1778C239.712 49.9219 238.368 49.0846 238.065 48.8206C237.276 48.1376 238.377 48.3391 238.384 48.2482C238.449 47.1633 237.745 47.5489 237.149 47.6356C236.592 46.0571 235.814 46.3963 236.536 47.7325C236.616 47.8779 237.012 47.5963 237.149 47.6356C237.111 49.3571 236.337 49.8082 234.928 48.6542C234.266 48.117 234.416 47.1767 233.167 47.9272C232.605 48.2707 233.222 49.2726 232.81 49.7554C231.883 50.8513 230.003 50.4606 228.906 51.1655C228.513 51.4187 229.188 51.796 228.935 51.9871C228.272 52.4943 227.408 52.4072 226.8 53.0198C226.746 53.0759 227.223 53.5646 227.006 53.6953C226.476 54.02 225.949 54.2987 225.415 54.572C224.276 55.1594 223.055 55.7264 221.829 56.5391C220.93 57.1337 219.557 58.5127 218.571 59.1017C216.892 60.1054 214.346 60.6893 213.056 61.8367C212.229 62.572 212.792 62.9872 212.644 63.6263C212.343 64.8756 210.134 64.458 209.809 64.3802C209.8 64.3767 210.524 63.7182 209.907 63.7166C209.272 63.2896 209.816 64.3715 209.809 64.3802C209.602 64.331 207.918 65.2375 207.65 65.5535C207.514 65.7213 207.945 66.1878 207.867 66.2655C205.981 68.1206 203.834 69.6061 201.388 70.6663C201.341 70.6782 201.055 70.0369 200.951 70.0724C199.471 70.5568 199.043 71.7683 198.161 72.821C197.277 73.8725 196.31 74.1823 195.088 73.4604C194.31 74.0298 192.857 74.1597 192.002 74.2155C191.168 74.2619 191.653 75.5355 191.603 75.5899C190.005 77.3004 188.536 77.112 186.432 77.8876C185.432 78.2549 183.55 79.2429 182.524 79.8018C181.704 80.2517 181.087 80.1464 180.371 80.6323C180.274 80.6977 180.594 81.2248 180.57 81.2588C179.936 82.2681 179.847 80.7207 179.573 80.5402C178.578 79.881 178.001 79.5476 177.037 80.3659C176.816 80.5534 176.748 82.8331 176.296 83.1167C175.71 83.4804 175.709 82.6751 175.116 83.0662C175.065 83.0989 175.225 83.5431 174.813 83.6555C172.888 84.1883 170.755 84.5482 168.776 85.1511C168.509 85.2305 169.055 85.8546 168.67 85.9814C166.854 86.5792 164.815 87.0741 162.914 87.1648C162.444 87.1851 162.605 86.6087 162.472 86.4804C161.66 85.7059 161.15 87.2234 161.011 87.2809C157.804 88.669 155.043 87.9456 151.748 89.0949C151.566 89.1615 150.363 90.8399 149.539 89.6926C149.481 89.6169 148.666 88.4404 148.236 89.3909C148.208 89.4503 148.7 90.0483 147.999 90.0812C147.684 90.0958 147.297 90.2235 146.869 90.3055C146.338 90.4069 145.748 90.4374 145.168 90.1049C144.832 89.9154 143.975 88.728 143.188 89.8406C143.143 89.9188 141.954 92.3645 141.301 90.8206C141.195 90.5659 141.127 88.8807 140.129 89.8343C139.938 90.0185 140.343 90.363 139.819 90.6418C139.008 91.0712 137.866 90.6997 136.884 91.5101C136.715 91.6536 136.007 92.8412 135.343 92.0019C135.24 91.8704 135.396 91.2991 135.069 91.2512C133.518 91.0201 131.921 91.4446 130.357 91.0767C129.806 90.9469 130.075 90.0329 129.506 89.7944C128.937 89.5564 127.786 89.3234 127.192 89.735C126.595 90.1471 127.235 91.6047 126.337 91.7122C122.401 92.1726 118.561 91.139 114.721 90.7254C114.151 90.6633 114.584 91.2182 113.742 91.1619C110.623 90.9672 105.226 90.875 102.71 89.4365C100.715 88.2932 103.442 87.9604 101.888 87.4002C101.132 87.1304 100.06 88.6906 99.8681 88.7185C97.9668 89.0086 96.8158 88.0917 95.119 88.0812C94.7748 88.0801 95.0086 88.8046 94.7172 88.7962C93.7452 88.7767 92.7135 88.3185 91.8018 88.2428C91.3939 88.2106 91.3818 88.7368 91.0012 88.641C90.0818 88.4167 89.3425 88.0885 88.5064 87.4766C88.432 87.4211 89.0658 86.8537 88.3986 86.7357C87.3485 86.5513 86.0732 85.8903 84.7737 86.2377C84.3917 86.344 84.2773 87.5305 83.5894 86.6259C83.4537 86.439 83.7806 85.028 82.8032 86.1771C82.7293 86.2735 82.2787 86.7015 81.8059 86.9752C81.3438 87.249 80.8603 87.3703 80.5778 86.8213C80.4363 86.5319 80.0529 85.3468 79.712 85.5361C79.6721 85.5662 79.8401 86.2047 79.5967 86.2716C79.1973 86.3799 78.8122 86.4729 78.9113 86.4931C78.9533 86.4963 79.1819 86.4809 79.686 86.2336C79.9633 86.0924 80.3176 85.8705 80.6886 85.532C81.0866 85.1712 81.5091 84.6427 81.8061 84.0613C82.3427 82.807 82.3249 85.014 82.9694 82.9934C83.0413 82.6764 83.0816 82.3716 83.0985 82.0943C83.1726 83.4898 82.9702 85.2217 82.7332 86.6249C82.639 87.1745 82.1007 86.7765 82.0397 86.8149C81.0478 87.4292 82.3475 87.8574 82.4165 88.0775C82.8272 89.4479 82.1652 90.4736 82.2468 91.7818C82.2667 92.1457 82.9083 91.9306 82.9593 92.0063C83.4524 92.7995 82.369 92.1601 82.2114 92.6253C81.7631 93.9298 81.6655 95.4584 81.5081 96.9557C81.4492 97.5056 82.2686 97.001 82.2023 97.5111C81.9937 99.0334 81.6824 100.674 80.7926 102.693C79.9296 104.543 78.1276 107.863 73.7218 109.181C72.1755 109.548 73.0062 108.723 72.6674 108.684C72.2831 108.613 71.8987 108.586 71.5149 108.582C70.8382 108.443 70.1564 109.348 69.9578 109.458C68.8796 110.066 68.4156 109.591 67.4463 109.714C62.6738 110.34 56.9019 109.437 52.639 108.354C47.9231 107.168 44.2766 105.615 40.1665 103.786C39.3961 103.438 38.6283 103.079 37.8525 102.712C37.5357 102.56 37.5157 103.385 37.2362 103.261C33.6378 101.616 30.7959 99.4417 27.8332 97.961C27.5922 97.839 27.5704 98.6429 27.1742 98.4696C26.3576 98.1175 25.4459 97.5594 24.8211 96.9736C24.5156 96.6891 25.2781 96.4074 24.9617 96.1312C24.2221 95.4861 23.3464 95.0043 22.4748 94.7536C22.1054 94.6504 22.3454 95.5354 21.8969 95.3553C18.7675 94.1648 16.6823 93.9446 13.9742 93.5607C13.7944 93.5354 13.2723 92.1479 12.9177 92.5398C12.9985 92.9399 13.1333 93.3992 13.2416 93.8205C13.066 93.8831 12.8876 93.9492 12.7058 94.0194C12.232 94.2115 12.0205 94.4096 12.0886 94.3319C12.1555 94.2801 12.3824 93.7878 12.3387 93.5685C12.2919 93.3977 12.2402 93.8887 12.388 94.3696C12.5152 94.8597 12.818 95.3875 12.9757 95.5745C13.0639 95.6776 13.1919 95.7986 13.3252 95.9025C13.3907 95.953 13.7368 95.247 13.8446 95.3246C14.0047 95.4488 14.2314 95.4939 13.9208 95.3892C13.747 95.3492 13.4286 95.2296 12.5586 95.2953C11.7635 95.3292 9.91878 95.8899 8.75709 97.3161C8.27654 97.9129 8.23482 98.138 8.21597 98.2227C8.20638 98.3111 8.26864 98.2635 8.34262 98.1777C8.49794 97.9936 8.72607 97.6134 8.98377 97.2035C9.10465 96.9956 10.4186 97.4202 10.3539 96.6594C10.3434 96.5354 10.3505 95.3763 10.0953 95.0345C10.0566 94.9877 9.39572 95.1073 9.42967 94.7337C9.63081 92.582 9.97585 90.175 10.5011 87.8675C10.5869 87.4942 11.2419 87.9351 11.3088 87.6684C11.778 85.7692 11.3371 83.6467 11.9882 81.8171C12.4248 80.5905 13.5906 81.0559 14.7542 80.4105C14.9188 80.3107 14.9498 79.5439 15.622 79.4988C17.3133 79.3974 19.163 79.7984 20.9661 79.6453C21.3553 79.6055 20.9382 78.5292 21.8758 79.167C21.939 79.2101 22.247 80.0073 22.5631 80.2051C22.7819 80.3447 23.4679 80.1013 23.747 80.3866C24.0257 80.6705 23.4493 80.9681 23.7729 81.4373C24.1001 81.9005 24.8827 81.7213 24.9552 82.6461ZM188.225 74.4013C187.307 74.0997 188.19 76.3265 188.665 75.4832C188.686 75.4398 188.271 74.4153 188.225 74.4013ZM264.224 40.0261C263.13 39.1537 262.781 40.7928 263.57 41.4786C264.36 42.1628 264.559 40.2896 264.224 40.0261ZM273.473 37.4194C272.249 36.8271 272.772 40.184 273.77 39.2729C273.828 39.221 273.544 37.4536 273.473 37.4194ZM15.0224 83.5187C15.0547 83.5091 15.1009 82.948 15.0695 82.9348C14.3179 82.6179 14.2263 83.7336 15.0224 83.5187ZM282.539 34.4501C282.094 34.0915 281.292 34.8397 281.835 35.2915C282.27 35.6562 283.091 34.8973 282.539 34.4501ZM152.148 82.7503C152.131 82.7171 151.725 82.7551 151.767 82.9522C151.904 83.5875 152.434 83.3093 152.148 82.7503ZM297.862 29.4825C295.591 30.113 293.293 27.9535 295.859 27.4005C296.323 27.3021 295.19 28.5748 295.838 28.6195C297.018 28.7014 297.147 26.8029 298.502 27.3454C298.747 27.4455 297.993 29.4523 297.859 29.4876C297.86 29.4859 297.861 29.4842 297.862 29.4825ZM186.668 71.9512C186.643 71.9282 186.117 72.1313 186.117 72.1654C186.146 72.9847 187.213 72.5732 186.668 71.9512ZM128.441 83.389C128.409 83.3229 127.111 83.2566 127.069 83.3171C126.377 84.5574 129.024 84.6962 128.441 83.389ZM218.214 51.0407C218.301 50.062 218.879 49.571 219.823 50.1011C219.273 50.3994 218.754 50.7355 218.214 51.0407Z" fill="black"/>
<path d="M259.909 0.513738C261.292 0.652345 263.036 1.32552 264.297 1.95894C264.692 2.15659 264.377 2.51431 264.645 2.66906C265.162 2.96938 265.756 2.90437 266.276 3.23707C266.447 3.34937 266.05 3.94226 266.234 4.04508C267.248 4.60529 268.27 4.68362 269.341 5.09628C274.536 7.10901 279.764 8.6289 285.118 10.173C286.902 10.686 288.947 11.772 290.854 11.9186C291.075 11.9347 291.074 11.3308 291.125 11.2923C291.917 10.7047 291.457 11.8222 291.849 12.0698C293.399 13.0478 295.265 13.5016 296.9 13.6086C297.619 13.6569 297.158 12.3656 297.724 13.1537C297.763 13.2072 297.461 13.7842 297.637 13.8888C298.039 14.1251 298.867 14.1796 299.181 14.2935C299.794 14.5179 299.917 14.536 300.519 14.663C301.338 14.8412 302.258 15.3379 303.177 15.3685C303.372 15.3728 303.243 14.6949 303.563 14.6445C303.882 14.5944 304.658 14.7953 304.909 14.9955C305.154 15.1947 304.946 15.6693 304.973 15.7919C305.196 16.8259 306.354 15.6619 306.473 15.6489C308.759 15.4795 310.452 16.5435 312.498 16.8525C314.057 17.0858 315.717 17.0577 317.18 17.2675C318.9 17.5162 320.343 18.0098 322.021 18.0637C322.196 18.0696 322.043 17.3033 322.253 17.3086C324.503 17.3609 326.694 17.4893 328.717 17.7596C328.919 17.7863 328.741 18.4769 328.962 18.5406C329.184 18.6008 329.421 18.6754 329.66 18.7427C329.86 18.8485 330.112 18.92 330.348 18.917C330.463 18.9172 330.58 18.8953 330.657 18.8678C330.698 18.8523 330.728 18.836 330.729 18.8326C330.729 18.8323 330.721 18.8338 330.679 18.8658C330.658 18.8842 330.639 18.8946 330.562 18.9771C330.526 19.0167 330.482 19.0685 330.424 19.1527C330.387 19.2131 330.393 19.1842 330.296 19.3768C330.224 19.5388 330.114 19.7809 330.118 20.2214C330.091 20.637 330.428 21.3585 330.769 21.6083C331.118 21.9087 331.452 22.0032 331.673 22.0458C332.125 22.1165 332.278 22.0507 332.319 22.0539C332.452 22.0333 332.516 22.0147 332.561 22.0046C332.629 21.9898 332.634 21.9973 332.641 22.0081C332.646 22.0334 332.626 22.0788 332.599 22.1392C332.563 22.2486 332.505 22.4092 332.494 22.5847C332.451 22.9486 332.517 23.4164 332.755 23.9885C332.027 24.3691 331.058 25.0041 330.05 25.0954C329.373 25.1789 329.325 24.2712 329.014 24.9436C328.942 25.0962 329.507 25.4436 329.368 25.6366C328.795 26.4377 327.863 27.0005 327.378 27.8913C327.282 28.0724 327.705 28.453 327.734 28.5652C327.947 29.4922 326.46 29.0148 326.266 29.0623C324.803 29.4265 324.326 30.2937 323.447 31.1302C323.238 31.3289 324.015 31.6327 323.833 31.8436C322.961 32.8478 321.956 33.7781 320.791 34.539C320.736 34.5741 320.68 34.6089 320.624 34.6433C320.358 34.8043 320.09 34.1526 319.939 34.2066C319.276 34.4539 320.05 35.4135 319.417 35.6836C319.284 35.7423 318.939 35.3007 318.879 35.2758C317.917 34.8923 318.68 36.052 318.631 36.1448C318.079 37.2997 316.507 36.8916 315.834 37.8794C315.754 37.9999 316.483 38.2542 316.225 38.5635C314.534 40.6026 312.438 42.5275 310.234 44.0442C309.887 44.2862 309.706 43.7091 309.641 43.6834C308.607 43.2992 309.418 44.4238 309.364 44.5557C308.921 45.5626 307.398 45.5168 308.096 47.1423C304.638 50.0045 302.282 53.8762 298.213 56.1413C298.162 56.1712 297.738 55.6424 297.639 55.704C296.445 56.4424 297.383 56.9627 297.714 58.4831C297.798 58.864 296.204 58.3239 296.08 58.2924C295.625 58.1732 295.046 57.3294 294.937 57.3292C294.057 57.3518 296.552 59.5112 295.992 60.1215C295.97 60.1369 295.597 59.6458 295.506 59.6562C295.22 59.6871 295.252 60.0085 294.955 60.0233C294.273 60.0505 292.978 59.0912 293.167 60.2643C293.193 60.4149 294.668 61.5745 294.104 62.0583C293.879 62.2494 293.018 63.236 292.686 63.4193C292.351 63.6053 292.075 63.0144 292.038 63.0158C290.789 63.2001 290.796 62.7032 289.593 62.2697C288.393 61.8398 290.554 63.6315 290.65 63.9909C290.745 64.3495 289.771 64.4406 289.484 64.4159C289.196 64.3917 289.061 63.9711 288.86 63.9995C287.534 64.1972 289.58 65.275 289.678 65.8282C289.911 67.1355 287.949 66.2006 287.298 66.6135C287.121 66.7252 287.582 66.9231 287.494 67.0849C287.144 67.7203 286.378 67.5978 286.277 68.5938C286.26 68.7565 286.747 70.0792 285.784 69.7746C285.646 69.7298 285.377 69.2556 285.087 69.4013C284.656 69.6171 284.027 70.1412 283.83 70.6164C283.685 70.9674 284.593 71.2375 284.094 71.3926C283.872 71.4612 283.751 70.851 283.364 71.008C282.979 71.1634 282.353 71.8877 282.122 72.1682C281.891 72.449 282.505 72.7365 282.518 72.7875C282.584 73.0868 282.348 73.8126 282.306 73.8577C280.283 76.2124 277.554 77.6098 275.804 80.0992C275.666 80.2943 276.28 80.6329 276.264 80.6674C275.933 81.4636 275.01 79.7734 274.178 79.7903C275.265 80.6549 274.854 80.7369 274.585 81.2641C274.457 81.5189 274.957 81.7655 274.981 81.8209C275.315 82.6691 274.342 82.1778 274.132 82.0886C273.362 81.7613 273.864 82.6042 273.345 82.3891C272.83 82.1761 272.534 81.3395 272.174 81.7563C272.441 82.2021 273.679 82.7628 273.557 83.214C273.101 84.9149 270.387 86.4277 269.472 87.2975C268.554 88.1688 268.349 88.538 267.728 88.9668C266.605 89.7426 267.652 90.0133 267.431 90.9254C267.21 91.8385 265.706 89.9662 265.246 89.718C264.788 89.4682 265.095 89.9111 264.789 89.8345C264.484 89.7576 264.433 89.2933 264.129 89.4789C263.824 89.665 263.886 90.96 264.205 91.402C264.88 92.3398 266.046 92.8073 265.137 93.208C265.084 93.2308 264.73 92.6918 264.55 92.7996C263.141 93.6701 262.045 94.8683 260.683 95.7752C260.496 95.8982 260.104 95.2961 259.989 95.3625C258.793 96.0524 259.984 96.4658 260.48 97.8671C259.29 96.6059 258.23 96.2131 257.565 96.956C257.166 97.4014 257.801 97.8204 257.948 98.4597C257.992 98.6523 257.327 98.6264 257.543 98.9178C258.247 99.8728 259.488 100.425 258.419 100.863C258.371 100.88 257.988 100.355 257.856 100.447C257.003 101.042 257.841 101.925 257.243 102.836C256.759 103.567 255.225 104.206 254.493 104.868C253.039 103.583 252.77 104.572 253.542 105.726C253.285 105.976 253.051 106.264 252.8 106.526C252.604 106.731 252.399 106.922 252.166 107.069C251.981 107.188 251.646 106.717 251.582 106.697C250.595 106.385 251.404 107.44 251.355 107.576C250.793 108.991 249.237 109.292 249.07 110.974C249.064 111.035 250.037 111.972 249.043 111.621C248.976 111.596 248.81 110.843 248.344 111.318C247.88 111.791 246.528 112.268 246.409 113.378C246.379 113.646 246.861 114.772 245.918 114.565C245.79 114.537 245.537 114.237 245.316 114.165C244.608 113.942 245.551 114.937 244.452 114.446C243.35 113.96 242.26 113.91 242.268 115.146C242.267 115.184 242.953 116.046 242.754 116.259C242.431 116.603 241.854 116.945 241.538 117.336C241.391 117.52 242.003 117.832 241.987 117.871C241.279 119.314 240.112 119.791 238.853 120.921C238.616 121.134 238.778 122.383 237.841 122.392C236.813 122.404 234.672 119.815 234.342 121.473C234.203 122.145 236.978 125.358 234.613 124.854C233.725 126.829 231.638 127.692 230.95 129.836C230.917 129.934 231.664 130.874 231.511 131.047C231.286 131.297 230.743 131.11 230.571 131.275C229.842 131.957 229.665 132.961 229.027 133.689C228.788 133.963 228.413 133.523 228.13 133.848C227.847 134.175 228.263 134.857 227.629 135.109C227.151 135.295 225.658 134.763 225.169 135.129C226.363 136.031 226.093 136.345 225.989 137.156C225.97 137.312 226.477 137.5 226.49 137.59C226.552 137.959 226.058 137.905 226.145 138.282C226.166 138.373 226.577 138.675 226.618 138.767C226.977 139.552 225.639 139.443 225.404 139.427C224.516 139.36 224.935 139.917 224.483 140.034C224.033 140.15 224.038 139.499 223.648 139.732C222.844 140.212 222.274 141.16 221.751 141.864C221.546 142.145 222.241 142.343 222.224 142.392C221.953 143.079 220.944 143.259 221.829 144.365C218.661 142.771 221.863 144.912 220.699 145.358C220.606 145.392 219.182 144.532 219.159 144.137C219.137 143.741 219.831 143.65 219.767 143.078C219.752 142.943 218.812 141.57 218.78 141.451C218.536 140.513 220.622 141.861 220.752 141.912C222.172 142.448 221.211 140.902 221.228 140.677C221.291 139.667 222.003 139.267 222.117 138.456C222.197 137.923 220.899 136.945 221.158 136.668C222.024 135.748 224.111 136.732 223.21 134.633C223.02 134.183 221.444 133.328 223.102 133.431C223.206 133.438 224.631 133.659 224.214 132.864C224.161 132.765 223.744 132.457 223.747 132.381C223.775 131.871 224.277 131.888 224.403 131.39C224.525 130.897 224.624 130.275 225.093 129.946C225.37 129.753 226.385 130.01 226.667 130.03C227.472 130.095 226.87 129.045 227.685 129.335C228.506 129.625 229.185 130.806 230.038 130.572C228.987 129.733 227.928 128.845 226.881 127.987C227.87 126.777 229.159 125.829 230.077 124.566C230.19 124.409 229.499 124.117 229.606 123.937C230.068 123.164 230.933 122.903 231.35 122.051C231.66 121.403 231.543 120.324 231.861 119.622C233.332 120.249 233.626 119.054 234.228 118.538C234.439 118.355 234.746 118.629 234.974 118.561C235.829 118.297 234.555 117.707 234.519 117.413C234.38 116.139 236.79 118.056 237.389 117.206C237.42 117.164 236.587 115.594 236.563 115.462C236.416 114.594 237.064 115.753 237.388 115.551C237.978 115.184 238.585 115.065 238.713 114.159C238.747 113.896 238.308 112.824 239.202 112.987C239.319 113.009 239.715 113.381 239.769 113.365C240.726 113.045 239.43 111.939 239.296 111.199C239.163 110.46 240.55 110.637 240.909 110.737C241.841 110.992 240.997 111.215 241.049 111.287C241.67 112.141 241.887 111.608 242.228 111.338C243.544 112.368 243.837 111.865 242.565 111.066C242.426 110.979 242.339 111.323 242.228 111.338C241.205 110.007 241.453 109.386 243.084 109.83C243.847 110.04 244.287 110.816 244.703 109.851C244.888 109.419 243.898 108.807 243.918 108.299C243.967 107.135 245.567 106.913 246.05 106.088C246.227 105.786 245.53 105.632 245.635 105.411C245.914 104.822 246.638 104.704 246.856 104.079C246.875 104.021 246.285 103.697 246.405 103.544C246.806 103.024 247.264 102.592 247.743 102.165C248.319 101.656 248.925 101.157 249.496 100.507C249.998 99.9359 250.579 98.7119 251.15 98.1665C252.125 97.2329 253.927 96.6262 254.506 95.6116C254.881 94.9564 254.279 94.6437 254.151 94.1079C253.9 93.0718 255.801 93.2706 256.079 93.321C256.09 93.3201 255.778 93.9114 256.261 93.8746C256.924 94.1884 256.076 93.3284 256.079 93.321C256.258 93.353 257.212 92.4945 257.286 92.2191C257.326 92.0697 256.806 91.7151 256.835 91.645C257.56 89.9755 258.563 88.5987 259.939 87.4849C259.968 87.4704 260.461 87.9679 260.524 87.9282C261.421 87.3842 261.209 86.3343 261.383 85.373C261.554 84.4154 262.115 84.0397 263.339 84.469C263.641 83.9021 264.641 83.5757 265.221 83.4089C265.803 83.2387 264.836 82.2798 264.846 82.2281C265.145 80.5989 266.277 80.4989 267.344 79.4873C267.854 79.0074 268.637 77.8367 269.028 77.1769C269.338 76.6518 269.816 76.5964 270.033 76.0495C270.062 75.9758 269.561 75.6274 269.559 75.5949C269.431 74.6522 270.335 75.8617 270.617 75.9437C271.641 76.2427 272.212 76.3733 272.401 75.486C272.445 75.2818 271.214 73.4628 271.343 73.1329C271.514 72.7066 271.973 73.3387 272.137 72.8794C272.152 72.8405 271.796 72.5311 271.998 72.3379C272.931 71.4369 274.077 70.5751 274.943 69.5463C275.063 69.407 274.35 69.0804 274.514 68.8708C275.283 67.8874 276.217 66.8961 277.291 66.232C277.557 66.0702 277.82 66.5606 277.978 66.617C278.942 66.954 278.309 65.6184 278.352 65.532C279.354 63.4495 281.414 63.0238 282.503 60.9544C282.561 60.84 282.118 59.1517 283.33 59.6876C283.411 59.7225 284.642 60.2815 284.241 59.4167C284.216 59.3623 283.551 59.1095 283.909 58.8175C284.267 58.5256 284.436 57.6855 285.394 57.7157C285.697 57.7244 286.958 58.246 286.601 57.1224C286.573 57.0473 285.49 54.8082 286.885 55.6464C287.114 55.785 288.321 56.9662 288.16 55.8621C288.127 55.6496 287.684 55.5749 287.751 55.1549C287.852 54.5094 288.667 54.2905 288.57 53.2845C288.552 53.1083 288.046 51.9659 288.955 52.2619C289.098 52.3083 289.432 52.777 289.621 52.6651C290.517 52.1381 290.952 51.1103 291.928 50.6276C292.273 50.4565 292.817 51.2094 293.25 51.1006C293.684 50.9906 294.361 50.6043 294.327 50.028C294.29 49.4555 292.931 48.7855 293.248 48.2731C294.608 46.0615 296.961 44.7805 298.797 42.9979C299.067 42.7361 298.476 42.6084 298.845 42.1984C300.241 40.6473 302.292 37.7548 304.346 37.1919C305.967 36.7647 305.225 38.5276 306.233 37.9868C306.71 37.7319 305.89 36.1446 305.939 36.0155C306.415 34.7305 307.536 34.6372 308.159 33.6537C308.285 33.4531 307.633 33.1447 307.746 32.9793C308.124 32.4129 308.83 32.1173 309.246 31.6041C309.429 31.3757 309.015 31.0521 309.229 30.8882C309.733 30.4946 310.277 30.2475 311.072 30.1302C311.144 30.1203 311.343 30.8494 311.691 30.5243C312.25 30.0017 313.252 29.6635 313.518 28.6789C313.592 28.3888 312.749 27.543 313.722 27.7291C313.818 27.7475 314.075 28.0065 314.273 28.1331C314.495 28.2707 314.647 28.2413 314.431 27.5315C314.37 27.3003 313.951 25.3481 315.108 25.7153C315.414 25.8099 316.508 26.3758 316.601 26.0229C316.611 25.9717 316.037 25.6378 316.179 25.4086C316.667 24.6299 317.442 23.9652 317.994 23.1535C318.145 22.9317 317.403 22.7251 317.642 22.4103C318.275 21.5666 319.365 20.7686 320.294 20.1965C320.627 19.9962 320.805 20.5791 320.867 20.6042C321.835 21.0359 321.179 19.8574 321.235 19.7032C321.613 18.7429 322.566 18.7226 323.152 18.0018C323.308 17.8108 322.77 17.4473 322.77 17.3734C322.797 16.6328 323.235 17.7381 323.572 17.6143C324.491 17.2964 325.265 16.5968 326.032 15.9181C326.309 15.6731 325.539 15.3412 325.799 15.1247C326.17 14.8173 326.523 14.5412 327.016 14.21C327.255 14.0504 327.533 13.8711 327.935 13.6495C328.184 13.5168 328.35 13.4174 328.914 13.1763C329.143 13.1004 329.523 12.8596 330.845 12.632C331.133 12.6411 332.382 12.2011 334.815 13.0795C336.071 13.6142 337.59 14.4209 338.831 16.7516C339.923 18.9473 339.686 20.9545 339.408 22.0432C339.262 22.6164 339.089 23.0459 338.928 23.3951C338.847 23.5694 338.768 23.7233 338.691 23.8619C338.623 23.9857 338.611 24.005 338.571 24.0721C338.435 24.3022 338.309 24.4881 338.194 24.6481C337.964 24.9666 337.774 25.1858 337.608 25.3675C336.602 26.3977 336.422 26.4115 336.054 26.6843C335.766 26.8738 335.481 27.0376 335.265 27.1505C334.785 27.4042 334.354 27.586 333.939 27.7355C333.089 28.0412 332.24 28.2321 331.354 28.3221C331.03 28.3349 330.707 28.3347 330.386 28.3218C329.955 28.3017 330.148 27.7117 330.045 27.5965C329.406 26.7806 328.709 28.0629 328.546 28.1898C327.757 28.777 327.409 28.295 326.718 28.4075C323.312 28.9574 319.516 28.2992 316.717 27.7768C313.083 27.0941 310.371 26.1339 306.976 25.6998C306.764 25.6718 306.851 26.4415 306.666 26.4265C304.224 26.1893 301.973 25.4753 299.542 25.2192C299.348 25.1977 299.489 25.9441 299.171 25.9326C298.519 25.9142 297.705 25.7131 297.096 25.3603C296.808 25.1916 297.342 24.6821 297.05 24.5243C296.371 24.1554 295.592 23.9445 294.799 23.8953C294.466 23.8768 294.801 24.6832 294.388 24.6057C291.532 24.0838 288.735 23.6024 286.062 22.0457C285.883 21.9398 286.037 20.472 285.565 20.6537C285.445 21.0436 285.341 21.5108 285.232 21.932C281.074 21.2337 277.138 19.7865 273.063 18.722C272.891 18.6773 273.004 19.5036 272.676 19.4221C270.776 18.9513 268.82 18.6944 267.045 17.4605C266.866 17.3385 267.296 16.0373 266.665 16.0939C266.552 16.1047 265.636 16.065 265.347 16.2988C265.306 16.3348 265.309 16.9927 265.028 16.9419C263.4 16.6365 261.699 16.0593 260.198 15.2776C259.953 15.1494 260.397 14.5613 260.224 14.4642C258.984 13.7786 257.429 13.9154 256.327 12.9968C255.586 12.3784 256.189 11.321 256.027 10.0861C256.004 9.91192 255.484 9.75173 255.624 9.09338C255.974 7.43775 256.69 5.70996 257.034 3.93746C257.109 3.55594 256.3 3.77956 256.951 2.97836C256.996 2.92513 257.583 2.75458 257.787 2.47835C257.929 2.28758 257.942 1.58493 258.19 1.35768C258.437 1.13064 258.489 1.7359 258.864 1.49034C259.24 1.24063 259.305 0.454363 259.909 0.513738ZM267.841 82.6316C268.647 82.709 266.909 81.0626 266.991 81.8309C266.997 81.87 267.8 82.6287 267.841 82.6316ZM230.575 126.952C231.793 127.108 230.844 125.804 229.924 125.656C229.005 125.509 230.206 126.906 230.575 126.952ZM227.229 132.584C228.334 132.499 225.698 130.36 225.768 131.407C225.772 131.467 227.165 132.589 227.229 132.584ZM258.181 10.2976C258.182 10.2652 257.818 10.1403 257.801 10.1685C257.415 10.8542 258.144 11.1036 258.181 10.2976ZM224.086 138.27C224.594 138.349 224.545 137.514 223.918 137.406C223.414 137.319 223.454 138.169 224.086 138.27ZM286.421 65.8418C286.452 65.8602 286.663 65.6767 286.51 65.545C286.018 65.1217 285.893 65.5308 286.421 65.8418ZM217.85 147.243C218.869 145.986 221.731 146.775 220.476 148.038C220.249 148.268 220.128 146.968 219.69 147.157C218.891 147.506 220.063 148.908 218.858 148.996C218.639 149.011 217.786 147.311 217.848 147.239C217.849 147.24 217.849 147.242 217.85 147.243ZM270.169 84.3394C270.198 84.3535 270.477 84.0861 270.46 84.059C270.031 83.3978 269.47 83.9348 270.169 84.3394ZM298.424 54.9482C298.486 54.9805 299.138 54.3688 299.113 54.3046C298.517 53.1197 297.197 54.353 298.424 54.9482ZM254.443 104.846C254.745 105.665 254.486 106.102 253.544 105.725C253.852 105.446 254.132 105.134 254.443 104.846Z" fill="black"/>
</svg>
