<svg width="560" height="159" viewBox="0 0 560 159" fill="none" xmlns="http://www.w3.org/2000/svg">
<path d="M1.79462 95.7091C3.69621 92.708 6.89629 89.1429 9.70939 86.7335C10.5876 85.978 10.4781 86.6912 11.1005 86.1937C12.3238 85.2256 13.2653 84.0839 14.5969 83.2245C14.6329 83.2015 14.6656 83.1866 14.6955 83.1784C15.0564 83.0675 14.9961 83.8571 15.4464 83.5523C18.1097 81.7673 20.6243 80.0934 23.5514 78.9798C30.888 76.1749 38.3788 76.0195 44.1481 75.1266C51.2705 73.7075 59.4013 75.101 65.6286 78.4885C67.673 79.5341 69.705 80.9103 71.642 82.2355C73.9421 83.7867 76.1298 85.5236 78.1528 87.17C78.6025 87.5364 78.7466 86.8706 78.8615 86.9097C80.6626 87.5822 79.4174 88.0474 80.1 88.9622C82.8258 92.5991 85.3562 96.8541 87.5029 99.9094C88.4208 101.156 88.5715 99.2457 88.8443 100.845C88.8655 100.954 88.1376 100.999 88.3105 101.37C88.513 101.802 88.899 102.347 89.2726 102.78C89.7308 103.318 90.15 103.798 90.3787 104.106C91.2809 105.326 91.4481 105.512 92.3788 106.598C93.6432 108.079 94.9695 110.026 96.4997 111.468C96.8262 111.773 96.8938 110.903 97.4603 111.352C98.0221 111.799 99.281 113.209 99.6117 113.769C99.9473 114.337 99.3931 114.488 99.3885 114.65C99.3321 116.003 101.839 116.623 102.059 116.794C102.679 117.294 103.264 117.797 103.831 118.312C106.74 120.923 109.234 123.502 112.588 125.43C115.596 127.159 119.126 128.355 122.298 129.397C125.182 130.356 127.774 131.182 130.67 131.945C131.399 132.142 132.192 132.276 133.034 132.337C133.403 132.363 133.038 131.577 133.479 131.602C138.217 131.816 143.343 130.839 148.276 129.444C148.774 129.299 148.401 130.164 148.919 130.053C150.62 129.682 152.927 129.136 154.649 128.027C156.195 127.042 157.306 125.77 157.28 124.161C159.15 123.013 161.312 121.477 163.136 120.616C164.328 120.039 163.906 121.414 164.843 120.111C165.048 119.818 164.286 119.677 164.618 119.278C166.027 117.587 167.724 115.931 168.751 113.979C168.96 113.58 168.429 113.345 168.42 113.185C168.354 111.878 170.469 111.172 170.78 110.88C173.077 108.747 174.099 106.562 176.061 104.167C176.521 103.614 175.388 103.791 175.821 103.234C175.859 103.185 175.897 103.137 175.936 103.089C178.131 100.314 180.9 97.7852 183.824 95.9623C184.486 95.5529 184.314 96.4996 184.648 96.3329C186.109 95.6145 185.693 94.4124 187.133 93.759C187.434 93.6233 187.588 94.1877 187.671 94.2056C188.959 94.4985 188.897 92.9407 189.09 92.7856C190.623 91.5209 192.18 91.2303 193.73 90.7626C194.551 90.5162 195.368 90.2216 196.202 89.7112C196.493 89.5325 195.488 89.2608 196.326 88.797C201.905 85.7187 208.22 83.1976 214.453 81.8184C215.422 81.6079 214.903 82.3211 214.98 82.365C216.234 83.0411 216.476 81.5622 216.782 81.4243C217.632 81.0548 218.526 80.892 219.416 80.7778C221.069 80.5652 222.503 80.6001 223.772 79.5974C227.704 79.9191 231.166 81.0646 234.445 82.2327C241.411 84.7521 247.789 88.5688 252.913 93.5921C253.01 93.6853 252.419 94.0811 252.614 94.2641C254.936 96.4842 255.067 95.2894 257.533 95.6084C258.157 95.6935 258.453 97.9102 258.491 98.088C258.633 98.739 257.585 99.1715 257.669 99.3438C258.21 100.407 259.449 99.0949 260.671 98.9554C261.059 98.9169 261.45 98.9991 261.815 99.3087C261.858 99.3532 261.266 99.6464 261.354 99.8005C261.628 100.281 262.173 100.435 262.415 100.928C262.965 102.066 262.173 103.503 264.073 104.02C264.315 104.087 265.367 102.488 266.577 103.798C267.064 104.313 269.266 106.533 269.763 107.262C270.267 107.984 269.417 107.954 269.441 108.018C270.429 110.275 269.584 109.846 269.472 111.49C269.349 113.126 271.245 111.038 271.794 111.191C271.973 111.242 272.157 111.456 272.33 111.742C272.689 112.335 272.978 113.225 273.04 113.541C273.129 114.007 272.504 113.853 272.64 114.219C273.536 116.642 274.399 114.17 275.258 114.519C277.288 115.358 276.573 117.821 277.474 119.316C277.719 119.722 277.858 119.128 278.15 119.433C279.299 120.643 279.39 121.83 281.01 122.958C281.276 123.144 283.191 123.579 283.069 124.915C283.051 125.106 282.399 125.113 282.74 125.739C283.12 126.436 283.82 127.479 284.504 128.28C284.74 128.557 284.971 128.803 285.185 128.997C285.808 129.559 285.869 128.283 286.326 129.261C286.528 129.694 285.597 129.348 286.009 130.135C286.423 130.928 287.873 132.618 288.442 133.247C289.007 133.875 289.194 133.1 289.272 133.123C289.729 133.273 291.03 134.279 291.123 134.381C295.044 138.632 298.361 143.192 302.728 146.334C303.744 147.022 304.855 147.583 306.043 148.007C306.538 148.182 306.472 147.415 306.55 147.436C308.292 147.799 306.335 149.007 307.371 150.017C307.639 148.641 308.269 149.14 309.563 149.34C310.189 149.432 309.995 148.823 310.065 148.785C311.143 148.228 311.518 149.388 311.637 149.636C312.07 150.546 312.931 149.766 313.239 150.365C313.561 150.961 312.438 151.543 313.706 151.77C314.147 151.346 313.456 149.903 314.433 149.866C315.298 149.83 316.316 149.907 317.416 150.043C320.758 150.471 325.245 150.907 327.454 150.793C330.343 150.643 331.253 150.391 332.944 150.299C335.803 150.089 334.869 149.409 336.135 148.653C336.222 148.599 336.32 148.545 336.429 148.489C338.098 147.617 337.844 150.115 338.235 150.542C338.634 150.961 338.785 150.376 339.187 150.551C339.596 150.723 338.973 151.266 339.786 151.136C340.608 151.016 342.42 149.432 342.478 148.831C342.631 147.564 341.331 146.815 343.355 146.452C343.473 146.43 343.357 147.152 343.798 147.037C347.302 146.102 350.639 144.292 353.891 142.592C354.34 142.358 354.358 143.184 354.625 143.052C357.405 141.639 355.831 141.309 356.362 139.29C357.108 140.884 358.514 141.178 360.346 139.678C361.44 138.772 360.765 138.35 361.099 137.36C361.201 137.061 362.283 136.793 362.181 136.407C361.84 135.151 360.298 134.815 362.378 133.6C362.47 133.548 362.661 134.236 362.949 134.021C363.927 133.287 364.223 132.631 364.518 131.922C364.764 131.291 364.995 130.624 365.668 129.745C366.788 128.348 369.221 126.021 370.327 124.092C372.025 125.05 372.608 122.909 371.741 121.573C372.4 120.285 372.96 118.805 373.702 117.572C373.957 117.146 374.342 117.668 374.422 117.635C375.054 117.39 375.13 116.987 375.062 116.606C374.995 116.231 374.785 115.882 374.824 115.728C375.741 112.397 377.708 110.181 378.027 106.775C378.037 106.656 376.855 105.981 378.094 105.527C378.178 105.499 378.348 106.736 378.961 105.315C379.58 103.891 381.301 101.447 381.605 99.202C381.661 98.8005 381.432 97.7738 381.866 96.9794C382.01 96.7173 382.231 96.4889 382.564 96.3429C382.733 96.2718 383.002 96.5903 383.288 96.5113C384.203 96.2548 383.183 95.279 384.574 95.1644C385.969 95.0484 387.478 94.1392 387.957 91.9145C387.973 91.8462 387.342 90.829 387.738 90.2668C388.366 89.3717 389.442 88.238 390.122 87.3307C390.447 86.8952 389.704 86.766 389.751 86.6832C391.726 83.528 393.957 81.8785 397.129 79.5513C397.688 79.1363 398.862 77.1036 400.481 77.0034C401.75 76.9413 402.227 78.8856 403.328 79.07C403.683 79.1674 404.05 79.0701 404.638 78.6727C405.075 78.3789 405.45 77.1392 406.271 76.2449C407.061 75.3518 408.285 74.8448 409.419 76.0504C414.333 76.0868 418.285 78.8326 423.08 79.9969C423.297 80.0515 424.403 79.2565 424.88 79.4824C425.589 79.82 425.754 80.4903 426.247 80.7503C426.955 81.1302 427.669 81.4356 428.394 81.7204C429.745 82.2478 431.124 82.5377 432.504 82.9767C433.308 83.2238 432.878 83.6967 433.864 83.9688C434.857 84.2297 435.658 83.6408 436.943 84.2174C437.912 84.6505 438.763 86.2981 440.166 86.6165C440.37 85.1318 441.317 85.2695 443.022 84.9768C443.348 84.9191 443.033 84.3794 443.189 84.3253C443.817 84.0926 444.368 84.5491 444.964 84.2774C445.109 84.2121 445.132 83.7019 445.25 83.6194C446.246 82.9021 447.841 84.0589 448.13 84.2556C449.21 85.0107 449.707 84.3356 450.54 84.6132C451.375 84.8879 450.149 85.2989 451.123 85.4505C453.155 85.7632 455.751 85.5142 457.791 85.3459C458.611 85.2752 457.987 84.6491 458.103 84.6232C459.757 84.2935 461.538 84.8069 462.286 83.3367C462.334 83.4361 462.38 83.5291 462.423 83.6161L462.236 83.6824C464.701 85.6797 462.757 82.6449 465.101 82.0058C465.292 81.955 466.367 83.2432 465.874 83.8323C465.382 84.4206 464.168 84.5554 463.505 85.4064C463.481 85.4373 463.452 85.512 463.419 85.617C463.28 85.6969 462.883 85.847 462.723 85.8639C462.334 86.3196 461.446 87.5639 461.292 87.6616C459.875 88.5692 459.399 86.1166 459.31 85.9905C458.281 84.6227 456.76 86.4388 456.317 86.5873C454.312 87.2768 452.545 87.0182 450.838 87.4487C449.718 87.7242 449.635 89.3495 448.727 89.3099C445.69 89.1522 444.779 86.8608 441.829 88.6387C441.19 89.006 441.648 90.847 439.546 89.239C439.407 89.1394 437.932 87.6862 436.872 88.3362C436.738 88.4189 436.663 88.9312 436.496 88.9491C435.374 89.055 434.735 88.5216 433.517 88.4604C432.3 88.3975 430.778 88.3089 429.459 87.6855C428.652 87.3128 427.954 86.005 427.677 85.6287C427.448 85.3256 427.166 85.1479 426.869 85.0208C426.203 84.7401 425.435 84.8408 425.273 84.1178C425.048 83.1088 426.677 82.4611 425.4 81.3036C424.798 82.5076 424.111 83.7132 423.477 84.9116C420.301 83.4583 417.294 81.7536 414.105 80.8522C413.715 80.7454 413.908 81.556 413.485 81.4613C411.744 81.0817 410.344 80.2418 408.708 80.3014C407.435 80.3507 406.316 81.2041 405.646 81.6008C405.25 80.9813 404.749 80.8528 404.285 80.9723C403.503 81.2259 402.739 81.8274 402.026 82.2285C401.566 82.4896 401.355 82.1378 400.961 82.2614C399.478 82.7735 400.878 83.4204 400.703 83.8316C400.019 85.607 397.831 83.4192 396.315 85.0753C396.223 85.1674 396.478 87.3167 396.441 87.5233C396.147 88.8791 395.876 87.2983 395.281 87.81C394.203 88.7548 393.261 89.3198 392.653 90.9811C392.474 91.472 392.647 93.0096 391.463 93.3768C391.307 93.4259 390.892 93.0702 390.809 93.1388C389.346 94.4291 390.776 95.3846 390.733 96.5729C390.694 97.7569 388.886 98.593 388.427 98.7334C387.237 99.0908 388.418 97.9623 388.369 97.8813C387.748 96.8906 387.306 98.0387 386.797 98.8226C386.097 98.5222 385.605 98.6118 385.425 98.8216C385.22 99.051 385.466 99.4579 386.298 99.6062C386.369 99.618 386.437 99.5063 386.5 99.3782C386.602 99.17 386.707 98.8983 386.797 98.8226C387.034 99.1542 387.197 99.4769 387.285 99.7845C387.661 100.727 387.112 101.606 385.536 102.291C384.588 102.707 384.079 101.72 383.496 103.987C383.233 105.021 384.454 105.065 384.401 106.048C384.281 108.298 382.249 110.52 381.552 112.655C381.299 113.432 382.183 112.939 382.03 113.477C381.622 114.912 380.677 115.935 380.305 117.398C380.272 117.532 381.009 117.49 380.83 117.921C380.684 118.277 380.537 118.618 380.383 118.961C379.175 121.629 377.81 124.109 376.169 127.231C375.315 128.915 373.722 132.162 372.29 133.764C371.404 134.799 370.286 135.796 369.108 136.69C367.336 137.994 365.483 139.265 364.262 140.527C362.986 141.833 363.71 142.07 363.393 142.926C362.769 144.6 359.626 145.047 359.192 145.056C359.183 145.056 360.354 143.973 359.476 144.215C358.662 143.947 359.204 145.042 359.192 145.056C358.918 145.085 356.226 146.803 355.752 147.24C355.499 147.487 356.003 147.904 355.863 148.024C352.536 150.85 348.579 153.077 344.238 154.354C344.16 154.369 344.031 153.672 343.851 153.716C341.33 154.29 340 155.553 337.993 156.555C337.989 156.557 337.984 156.559 337.98 156.561C336.01 157.536 334.28 157.655 332.881 156.659C331.342 157.055 329.034 156.777 327.732 156.55C326.43 156.326 326.329 157.684 326.213 157.72C322.634 158.738 320.531 158.008 316.543 157.403C316.484 157.394 316.424 157.384 316.363 157.373C314.635 157.093 311.353 156.719 309.444 156.395C307.892 156.143 307.053 155.58 305.552 155.297C305.348 155.257 305.35 155.897 305.283 155.899C303.386 155.999 304.691 154.883 304.45 154.515C303.592 153.139 303.127 152.438 300.978 151.764C300.701 151.673 299.836 151.971 298.934 152.122C298.215 152.235 297.506 152.276 297.133 152.069C296.049 151.454 296.883 151.131 295.817 150.516C295.731 150.464 295.44 150.84 294.887 150.351C292.326 148.074 290.059 145.438 287.753 143.069C287.444 142.748 287.294 143.68 286.834 143.218C284.67 141.041 282.502 138.517 280.892 136.038C280.502 135.432 281.192 135.442 281.212 135.223C281.322 133.885 279.413 133.704 279.252 133.546C279.054 133.354 278.86 133.16 278.671 132.964C275.22 129.372 273.782 125.614 270.32 122.102C270.116 121.895 267.646 121.136 268.029 119.621C268.055 119.52 268.454 117.974 267.251 117.908C267.177 117.906 267.038 118.768 266.446 117.96C266.293 117.751 266.086 117.534 265.859 117.303C265.199 116.63 264.367 115.839 264.08 114.72C263.96 114.246 264.197 112.6 262.552 112.353C262.435 112.328 259.406 112.521 260.035 110.906C260.138 110.642 261.414 109.516 259.697 109.059C259.369 108.977 259.493 109.615 258.773 109.254C257.675 108.709 256.828 107.324 255.265 106.985C255.118 106.955 254.6 106.999 254.15 106.868C253.738 106.732 253.361 106.454 253.293 105.884C253.27 105.688 253.836 105.424 253.504 105.07C251.931 103.394 249.869 102.237 248.312 100.586C247.758 100.003 248.626 99.5114 248.1 98.8224C247.574 98.1313 246.335 96.9673 245.384 96.8289C244.438 96.6935 244.399 98.4128 243.284 97.8117C239.092 95.574 235.369 92.9167 231.225 91.1592C230.559 90.8795 229.899 90.6215 229.249 90.396C228.527 90.1506 228.965 90.8234 227.92 90.5259C225.652 89.885 223.169 89.6624 221.212 90.0241C219.371 90.3443 216.909 90.9444 215.245 91.0168C212.011 91.2185 215.505 89.2659 213.113 89.7372C211.944 89.9774 211.376 92.0119 211.137 92.1641C208.797 93.673 206.763 93.7489 204.602 95.007C204.159 95.2672 204.904 95.6731 204.525 95.8881C203.238 96.6265 201.707 97.0448 200.471 97.7467C199.916 98.0649 200.267 98.4712 199.73 98.7082C199.259 98.9192 198.812 99.1018 198.348 99.2689C197.565 99.5472 196.776 99.7575 195.894 99.9108C195.766 99.9339 196.148 98.9591 195.261 99.448C193.835 100.239 191.863 100.917 190.677 102.39C190.328 102.831 191.024 103.789 189.63 103.823C189.343 103.833 188.673 102.517 188.423 104.32C188.352 104.633 187.857 107.272 186.383 107.24C185.989 107.229 184.636 106.927 184.332 107.526C184.295 107.609 184.996 107.796 184.689 108.22C184.354 108.68 184.003 109.136 183.649 109.599C182.894 110.589 182.133 111.627 181.473 112.83C181.22 113.297 182.211 113.023 181.818 113.707C180.753 115.572 178.927 118.172 177.16 120.198C176.514 120.936 176.478 120.063 176.387 120.086C174.931 120.406 175.539 121.737 175.354 122.087C174.171 124.254 172.438 125.194 170.965 126.826C170.548 127.28 171.294 127.437 171.243 127.562C170.688 128.822 170.617 127.357 169.946 127.8C168.062 129.03 166.225 130.552 164.522 131.88C163.9 132.366 165.048 132.436 164.475 132.869C162.923 134.043 161.295 135.13 159.623 136.113C157.43 137.409 155.151 138.404 152.895 139.105C152.107 139.345 152.375 138.631 152.17 138.576C150.778 138.183 149.617 139.876 149.264 140.11C147.721 141.166 146.899 140.88 145.389 141.352C140.57 142.781 134.707 143.625 128.252 142.058C125.83 141.42 123.251 140.711 120.948 139.957C112.389 137.145 105.91 133.269 99.1571 127.6C98.7264 127.232 98.6617 128.167 98.2856 127.856C97.5828 127.263 96.9052 126.649 96.2422 126.008C92.7422 122.632 89.5519 119.024 86.1537 115.488C85.8265 115.145 85.7508 116.121 85.2127 115.59C84.0987 114.497 82.8317 112.973 81.9994 111.637C81.5904 110.984 82.7082 111.37 82.294 110.729C82.0077 110.284 81.6936 109.827 81.4059 109.429C80.3127 107.997 79.4685 106.692 78.6719 105.588C78.1929 104.92 78.2386 106.349 77.6687 105.456C74.0751 99.5661 71.3772 96.3519 67.0894 92.398C66.8222 92.1532 67.2309 90.9447 66.6025 90.5723C66.5389 90.5347 66.4669 90.5044 66.385 90.4827C66.1127 90.7936 65.8691 91.2056 65.6176 91.5617C58.5054 87.3649 53.2833 85.2362 46.461 86.4999C44.9947 86.7741 43.6433 86.9572 42.3623 87.1346C41.9438 87.192 42.7785 87.8562 41.9674 87.9711C37.3385 88.6097 33.6164 89.4004 29.7992 89.9953C29.4249 90.0592 29.1075 88.6999 28.1246 89.3337C27.9432 89.437 26.486 90.3294 26.2738 90.8031C26.2473 90.8693 26.8043 91.289 26.3676 91.5529C25.3316 92.1815 24.3363 92.8599 23.3804 93.6021C21.7997 94.8401 20.2031 96.1853 18.6287 97.5481C18.1977 97.9214 18.1082 97.0152 17.7936 97.2818C15.5561 99.1888 13.9678 102.045 11.8046 104.023C10.3441 105.368 9.79703 104.112 8.24163 104.327C8.0291 104.348 7.28611 105.386 6.69631 105.055C5.21441 104.225 4.02893 102.683 2.40535 101.863C2.23068 101.774 2.00087 102.121 1.80939 102.283C1.71374 102.363 1.6368 102.386 1.55459 102.331C1.47301 102.274 1.36237 102.175 1.28297 101.884C1.24375 101.838 1.64726 100.703 1.56248 100.263C1.50267 99.9612 0.721788 99.8904 0.734137 99.3748C0.75513 98.8478 1.49461 98.7837 1.65324 97.9811C1.81492 97.1721 0.978802 96.996 1.79462 95.7091ZM321.927 155.312C320.771 154.636 320.504 157.021 321.832 156.477C321.896 156.448 321.987 155.345 321.927 155.312ZM417.95 80.178C416.971 78.6955 415.564 79.874 416.224 80.9557C416.862 82.036 418.237 80.6259 417.95 80.178ZM432.402 85.1271C430.937 83.8507 429.601 86.9858 431.761 86.8961C431.887 86.8902 432.492 85.201 432.402 85.1271ZM10.8346 100.15C10.797 100.145 10.2458 100.83 10.2574 100.869C10.5886 101.696 11.6875 100.328 10.8346 100.15ZM447.74 86.0019C447.207 85.546 445.652 86.0476 446.31 86.6301C446.848 87.1025 448.415 86.5737 447.74 86.0019ZM276.579 120.068C276.597 120.033 276.226 119.502 276.074 119.636C275.589 120.069 276.284 120.667 276.579 120.068ZM472.101 78.8921C471.851 79.1246 471.566 79.363 471.249 79.5556C471.234 79.567 471.19 79.6001 471.175 79.6097C468.23 80.861 465.737 79.7104 469.029 77.9938C469.685 77.6484 468.154 79.5988 469.087 79.3118C469.665 79.1331 470.05 78.7738 470.379 78.3702L470.31 78.4205C470.695 77.6909 471.059 76.3548 472.573 76.1768C472.773 76.1582 472.553 76.8133 472.412 77.4796C472.265 78.1442 472.188 78.8208 472.099 78.8996C472.1 78.8971 472.101 78.8946 472.101 78.8921ZM321.324 152.425C321.301 152.395 320.407 152.332 320.384 152.36C319.855 153.1 321.69 153.231 321.324 152.425ZM250.562 92.6952C250.564 92.6079 248.867 91.3559 248.773 91.3739C247.186 91.7867 250.567 94.2827 250.562 92.6952ZM370.388 124.086C370.149 122.898 370.545 121.869 371.738 121.577C371.29 122.419 370.867 123.273 370.388 124.086Z" fill="black"/>
<path d="M456.976 20.4631C457.377 20.4011 457.716 20.7795 457.922 21.1933C457.987 21.3221 457.777 21.6943 457.814 21.8009C457.888 22.0089 458.093 21.8676 458.154 22.1041C458.173 22.1844 457.865 22.7843 457.891 22.8543C458.035 23.2332 458.341 23.1727 458.547 23.4102C459.558 24.5804 460.717 25.3212 461.893 26.1238C462.281 26.3877 462.572 27.1612 463.111 27.0896C463.174 27.0807 463.362 26.521 463.39 26.4798C463.819 25.8503 463.326 26.9351 463.368 27.1219C463.532 27.86 463.955 28.0872 464.42 28.0272C464.619 28.0001 464.889 26.847 464.81 27.523C464.805 27.5688 464.532 28.1343 464.552 28.2141C464.598 28.3939 464.831 28.366 464.891 28.4432C465.006 28.5948 465.033 28.5988 465.173 28.6619C465.363 28.7533 465.482 29.1349 465.743 29.0854C465.799 29.0732 465.976 28.4528 466.087 28.3792C466.198 28.3058 466.366 28.4306 466.375 28.5966C466.383 28.7625 466.172 29.2213 466.141 29.3333C465.877 30.2783 466.59 29.1061 466.63 29.0859C467.349 28.7562 467.508 29.6452 467.991 29.8305C468.358 29.9696 468.84 29.8836 469.175 30.0501C469.572 30.2499 469.802 30.7106 470.224 30.8077C470.268 30.8188 470.487 30.0946 470.542 30.1066C471.125 30.2349 471.642 30.5181 472.01 31.2005C472.048 31.2697 471.744 31.8634 471.767 31.9697C471.914 32.6063 471.996 34.0325 473.199 31.4014C473.388 31.5915 473.623 31.8021 473.628 32.4235C473.632 32.8233 473.255 33.4541 473.524 33.2244C473.584 33.1733 473.753 32.5623 473.827 32.5305C474.136 32.3972 474.319 32.6824 474.659 32.458C474.728 32.4109 474.908 31.8737 474.956 31.7825C475.347 31.0454 475.066 32.3956 475.072 32.5034C475.129 33.3102 475.451 33.116 475.729 33.2339C475.794 33.2617 475.97 32.5169 476.041 32.5179C476.409 32.5326 476.723 32.7126 476.937 33.1446C476.983 33.2422 476.704 33.8312 476.716 33.9092C476.769 34.2459 477.204 33.1012 477.262 33.401C477.274 33.4628 477.076 33.9811 477.061 34.0407C476.836 34.9747 477.356 33.7205 477.388 33.6999C477.806 33.4117 477.528 34.8116 477.871 34.7165C477.912 34.7037 478.063 34.0136 478.165 34.0182C478.843 34.0434 479.431 34.4418 479.871 35.1743C479.939 35.2871 479.71 35.767 479.696 35.8308C479.481 36.829 479.963 35.5544 480.01 35.5156C480.354 35.2551 480.263 36.3072 480.827 35.0886C480.852 35.034 480.879 34.9747 480.907 34.9106C481.779 35.7752 483.063 35.2094 483.703 36.898C483.712 36.9179 483.507 37.5565 483.525 37.5935C483.742 38.0451 483.964 37.0253 484.512 35.8548C484.648 35.5607 484.402 37.088 484.387 37.2008C484.33 37.6159 484.013 38.5632 484.01 38.6456C483.991 39.2953 484.83 36.106 485.023 36.157C485.028 36.1639 484.845 36.7433 484.845 36.8059C484.847 37.0026 484.96 36.7831 484.955 36.9982C484.944 37.4954 484.575 39.0557 484.988 38.2C485.041 38.0887 485.484 36.271 485.634 36.4017C485.694 36.4555 486.006 36.5029 486.06 36.6417C486.116 36.7809 485.908 37.3501 485.908 37.3769C485.945 38.2089 485.775 38.5066 485.606 39.6809C485.439 40.8513 486.088 38.123 486.211 37.8312C486.334 37.5403 486.345 38.2205 486.334 38.4532C486.322 38.6858 486.177 39.0446 486.184 39.1796C486.235 40.063 486.625 37.8549 486.813 37.4425C487.251 36.4647 486.91 38.5214 487.044 38.7626C487.08 38.8276 487.15 38.3574 487.202 38.3244C487.41 38.1996 487.362 38.8548 487.69 38.3199C487.745 38.2329 488.177 37.0493 488.073 37.9665C488.058 38.0987 487.903 38.595 487.949 38.7245C488.017 38.9185 488.19 39.0731 488.343 38.9295C488.457 38.8232 488.542 37.9677 488.592 38.2502C488.615 38.3764 488.419 38.845 488.471 39.0413C488.521 39.2375 488.757 39.2659 488.849 39.2677C488.94 39.269 489.026 38.6252 489.042 38.584C489.137 38.3486 489.366 38.0777 489.38 38.0814C490.129 38.1571 490.61 39.3624 491.406 39.1379C491.467 39.1211 491.55 38.4419 491.56 38.4324C491.803 38.185 491.332 39.9458 491.366 40.569C491.586 39.2004 491.624 39.462 491.788 39.3362C491.867 39.2744 491.923 38.7393 491.938 38.6862C492.174 37.8997 492.063 38.9489 492.045 39.1643C491.977 39.9564 492.205 39.0456 492.162 39.5753C492.12 40.1012 491.887 40.8523 492.024 40.8651C492.143 40.3819 492.258 39.0866 492.392 38.896C492.895 38.1745 493.438 39.2884 493.73 39.4373C494.021 39.5866 494.13 39.5092 494.285 39.7119C494.564 40.0775 494.576 39.1081 494.831 38.6982C495.088 38.2881 494.682 40.6219 494.644 41.1302C494.606 41.6383 494.706 41.1233 494.706 41.4053C494.706 41.6871 494.583 42.02 494.654 42.1352C494.727 42.2504 495.073 41.3823 495.168 40.858C495.371 39.7474 495.416 38.5609 495.582 39.0003C495.591 39.0263 495.474 39.639 495.515 39.7073C495.839 40.23 496.237 40.3059 496.577 40.769C496.624 40.8337 496.502 41.5169 496.528 41.5623C496.808 42.0377 496.816 40.8643 497.125 39.5927C496.907 41.3052 496.896 42.3659 497.146 42.4013C497.295 42.423 497.344 41.6703 497.491 41.1509C497.535 40.9943 497.59 41.5197 497.643 41.1686C497.816 40.0211 497.843 38.7207 498.042 39.2584C498.051 39.2839 497.957 39.9121 497.991 39.9539C498.213 40.2271 498.354 39.0229 498.629 38.9C498.67 38.8814 498.715 38.8948 498.762 38.9296C498.959 39.0757 499.193 39.5976 499.377 39.7097C499.216 41.6435 499.481 41.2187 499.674 39.8917C499.824 39.9582 499.995 39.8951 500.13 40.0903C500.177 40.157 500.103 40.7148 500.105 40.7759C500.137 41.7329 500.298 40.4394 500.334 40.3908C500.728 39.9212 500.96 40.9249 501.365 39.9838C501.379 39.9499 501.48 38.6057 501.513 39.5935C501.515 39.6616 501.364 40.267 501.523 40.324C501.683 40.3811 501.95 41.12 502.21 40.5083C502.273 40.3611 502.466 39.2755 502.533 40.1349C502.542 40.2516 502.507 40.6369 502.517 40.8528C502.552 41.5408 502.657 40.182 502.682 41.342C502.707 42.5019 502.84 43.3762 503.109 42.5889C503.117 42.566 503.22 41.4897 503.291 41.5099C503.405 41.5431 503.56 41.7748 503.681 41.7726C503.739 41.7712 503.729 41.0998 503.739 41.0879C504.14 40.7279 504.392 41.3352 504.8 41.608C504.875 41.6593 505.121 40.7522 505.247 41.479C505.386 42.2746 505.125 45.5605 505.527 44.7869C505.691 44.4774 505.983 40.3074 506.203 42.4766C506.739 41.9524 507.206 43.0684 507.746 42.3104C507.77 42.2768 507.861 41.1124 507.916 41.129C507.998 41.1559 508.036 41.7012 508.095 41.7378C508.34 41.905 508.571 41.4414 508.808 41.5161C508.898 41.5432 508.861 42.1062 508.969 42.1386C509.077 42.1705 509.154 41.4294 509.297 41.7888C509.406 42.0626 509.506 43.5794 509.652 43.757C509.667 42.2617 509.768 42.2931 509.949 41.8993C509.983 41.8229 509.949 41.3022 509.966 41.2393C510.033 40.9713 510.092 41.403 510.156 41.1113C510.172 41.0412 510.175 40.5305 510.188 40.4444C510.297 39.6928 510.466 40.8423 510.495 41.0424C510.608 41.8024 510.664 41.1384 510.751 41.4378C510.838 41.7372 510.705 42.1107 510.808 42.2925C511.021 42.6685 511.296 42.5866 511.513 42.6104C511.599 42.6168 511.541 41.935 511.554 41.9201C511.733 41.7474 511.913 42.4728 512.013 41.1149C512.135 44.626 512.122 40.7745 512.377 41.4775C512.397 41.5343 512.422 43.1947 512.344 43.4384C512.267 43.6819 512.149 43.1628 512.042 43.5427C512.016 43.6318 511.869 45.1875 511.849 45.2818C511.691 46.0182 511.672 43.537 511.664 43.4007C511.573 41.9299 511.392 43.6058 511.345 43.7215C511.129 44.2518 510.946 43.9024 510.765 44.2806C510.647 44.5251 510.629 46.1503 510.537 46.1002C510.227 45.9346 510.131 43.6669 509.83 45.6311C509.765 46.05 509.816 47.8268 509.6 46.4286C509.586 46.3405 509.428 45.0616 509.326 45.8691C509.313 45.971 509.31 46.4886 509.293 46.532C509.184 46.8125 509.116 46.3995 508.997 46.5961C508.878 46.7926 508.735 47.0858 508.602 46.9089C508.522 46.8031 508.429 45.8375 508.393 45.6009C508.293 44.9195 508.163 46.0334 508.106 45.2089C508.048 44.3802 508.195 43.1247 508.026 42.5876C508.002 43.9324 507.97 45.3126 507.941 46.665C507.549 46.6125 507.17 46.1717 506.775 46.2236C506.726 46.2314 506.762 46.9553 506.709 46.9823C506.484 47.0929 506.301 46.5735 506.066 46.7734C505.884 46.931 505.669 47.6915 505.475 47.8793C505.401 46.3378 505.109 46.8525 504.911 46.7057C504.842 46.655 504.86 46.2443 504.814 46.1087C504.64 45.607 504.686 46.9692 504.627 47.1814C504.372 48.0871 504.456 45.0098 504.193 45.0767C504.179 45.0792 503.95 46.7129 503.922 46.8141C503.748 47.4743 503.919 46.2424 503.83 46.1178C503.668 45.8898 503.567 45.4937 503.347 45.9656C503.284 46.1054 503.098 47.1212 503.02 46.3259C503.009 46.2217 503.041 45.6802 503.031 45.648C502.839 45.1094 502.756 46.8115 502.603 47.3822C502.45 47.9527 502.312 46.7681 502.291 46.4275C502.232 45.5463 502.388 46.057 502.398 45.9713C502.512 44.9513 502.365 45.1207 502.263 45.0288C502.332 43.3592 502.181 43.4519 502.157 44.9403C502.155 45.1029 502.245 44.9515 502.263 45.0288C502.087 46.6615 501.908 46.8625 501.809 45.3228C501.764 44.6012 501.889 43.7697 501.619 44.0613C501.496 44.1928 501.475 45.3441 501.353 45.6513C501.074 46.352 500.832 45.2618 500.58 45.4149C500.488 45.4704 500.533 46.1045 500.468 46.1641C500.296 46.324 500.185 45.8429 500.007 46.0732C499.991 46.0949 499.981 46.7551 499.93 46.7599C499.54 46.8094 499.238 46.3633 498.841 46.3198C498.655 46.2998 498.301 46.609 498.1 46.5503C498.092 46.5481 498.085 46.5454 498.078 46.5422C497.741 46.3897 497.405 45.3957 497.088 45.5986C496.881 45.7282 496.858 46.3885 496.73 46.8273C496.481 47.6777 496.353 46.0961 496.342 45.8519C496.342 45.8439 496.524 45.7066 496.47 45.3607C496.493 44.6538 496.344 45.8491 496.342 45.8519C496.333 45.6942 496.017 45.5098 495.938 45.6277C495.894 45.6923 495.846 46.3155 495.825 46.3374C495.315 46.8437 494.84 46.9478 494.419 46.6003C494.412 46.5868 494.512 45.8949 494.496 45.8718C494.273 45.5304 493.996 46.3565 493.708 46.8301C493.423 47.3037 493.267 47.1106 493.305 45.9044C493.121 46.0311 492.961 45.4722 492.873 45.134C492.787 44.7959 492.568 46.1386 492.552 46.1634C492.051 46.9587 491.95 46.1552 491.584 45.9735C491.411 45.8851 491.014 46.0192 490.791 46.1317C490.613 46.2229 490.573 45.8923 490.393 46.0676C490.368 46.0909 490.283 46.6909 490.273 46.7128C489.983 47.3975 490.321 45.9534 490.333 45.6871C490.382 44.7189 490.402 44.2023 490.117 44.6102C490.052 44.7037 489.527 46.7748 489.416 46.8809C489.273 47.0151 489.457 46.2721 489.304 46.4316C489.291 46.4446 489.205 46.9083 489.135 46.8738C488.808 46.7199 488.489 46.3776 488.129 46.3526C488.08 46.3473 487.993 47.0927 487.919 47.0971C487.57 47.1163 487.216 47.0135 486.969 46.6018C486.909 46.4984 487.069 45.9973 487.085 45.8418C487.183 44.9004 486.745 46.2035 486.714 46.2233C485.986 46.7351 485.823 45.4282 485.1 45.8606C485.061 45.887 484.468 47.2512 484.655 46.0032C484.667 45.92 484.866 44.6451 484.56 45.4748C484.54 45.5267 484.45 46.1861 484.347 46.0913C484.247 45.9971 483.948 46.3782 483.964 45.632C483.969 45.3968 484.164 44.1234 483.761 45.0754C483.736 45.1425 482.92 47.3193 483.236 45.7535C483.288 45.4958 483.729 43.8667 483.329 44.6564C483.252 44.8096 483.219 45.1901 483.068 45.3936C482.837 45.7073 482.769 45.2216 482.401 45.9012C482.338 46.0219 481.907 47.0924 482.033 46.2256C482.053 46.0898 482.231 45.5543 482.194 45.4789C482.02 45.1181 481.646 45.4058 481.496 44.9586C481.441 44.8011 481.734 43.9373 481.706 43.6758C481.678 43.4144 481.553 43.1347 481.34 43.5067C481.127 43.879 480.835 45.3055 480.654 45.3744C479.859 45.6705 479.457 44.6624 478.854 44.3466C478.764 44.2995 478.689 44.8201 478.546 44.7864C478.346 44.7401 478.072 44.7379 477.8 44.6858C477.364 44.6037 476.935 44.3889 476.875 43.6497C476.796 42.694 477.448 42.1986 477.292 41.7692C477.217 41.5641 476.55 43.1214 476.502 43.1616C476.028 43.574 476.049 42.7928 475.703 42.9189C475.632 42.9451 475.47 43.6122 475.411 43.6273C475.209 43.6845 475.133 43.3367 474.957 43.336C474.878 43.3372 474.723 43.8363 474.67 43.7759C474.544 43.6375 474.478 43.3829 474.487 42.8679C474.487 42.821 474.791 42.238 474.684 42.176C474.512 42.0772 474.441 41.5418 474.068 41.9401C473.956 42.0601 473.561 43.187 473.697 42.3611C473.725 42.1885 474.234 40.8475 473.668 41.9622C473.574 42.1474 472.756 43.6314 472.984 42.5697C473.044 42.2903 473.348 41.1532 473.211 41.3006C473.191 41.3247 473.019 41.944 472.935 41.9809C472.645 42.1003 472.438 41.9542 472.146 42.0631C472.068 42.0933 471.934 42.7504 471.824 42.7753C471.519 42.8446 471.268 42.5745 471.098 42.2922C471.036 42.1869 471.285 41.6922 471.299 41.6336C471.527 40.6811 471.018 41.8938 470.957 41.9532C470.585 42.306 470.635 41.6676 470.382 41.749C470.313 41.7699 470.136 42.3721 470.106 42.4206C469.806 42.8919 470.277 41.8663 470.248 41.7239C470.17 41.3213 469.932 41.2873 469.705 41.2886C469.621 41.2899 469.452 42.0017 469.379 41.9949C468.943 41.9672 468.562 41.7512 468.321 41.2334C468.276 41.1347 468.518 40.628 468.548 40.5027C468.758 39.6273 468.181 40.7127 468.106 40.8082C467.762 41.2454 467.875 40.7595 467.704 40.7935C466.862 40.9675 466.144 40.3427 465.581 39.909C464.845 39.3469 464.399 38.6027 463.564 38.4247C463.511 38.4126 463.291 39.1252 463.242 39.1237C462.621 39.0734 462.181 38.5879 461.547 38.5685C461.496 38.5657 461.302 39.2476 461.211 39.265C461.02 39.3052 460.845 39.1947 460.777 38.9253C460.743 38.7951 461.065 38.2718 461.026 38.1523C460.937 37.8728 460.77 37.7524 460.551 37.787C460.457 37.8031 460.304 38.5187 460.203 38.4874C459.508 38.2881 458.804 38.1407 458.479 37.004C458.456 36.9259 458.961 35.549 458.759 35.7706C458.6 36.1453 458.422 36.5896 458.257 36.9919C457.2 36.8203 456.432 35.9626 455.494 35.4985C455.454 35.479 455.233 36.2277 455.155 36.1937C454.702 35.9982 454.177 36.0176 454 35.1129C453.982 35.0241 454.519 33.7674 454.305 33.9036C454.267 33.9288 453.993 34.0143 453.828 34.2676C453.804 34.3061 453.602 34.9124 453.529 34.9028C453.108 34.8365 452.759 34.5378 452.522 34.021C452.484 33.9364 452.806 33.3339 452.781 33.2682C452.604 32.8071 452.069 33.1473 452.003 32.4547C451.959 31.9887 452.475 30.931 452.804 29.8171C452.85 29.6599 452.736 29.5857 452.983 28.9601C453.603 27.3869 454.36 25.6959 455.013 24.0161C455.154 23.6544 454.831 23.9744 455.282 23.1451C455.313 23.0898 455.55 22.8501 455.7 22.5673C455.803 22.3718 456.023 21.7232 456.171 21.4793C456.319 21.2357 456.15 21.7855 456.344 21.5072C456.54 21.2251 456.802 20.4919 456.976 20.4631ZM492.49 43.6214C492.47 42.9571 492.082 45.3183 492.303 44.7734C492.314 44.7442 492.491 43.654 492.49 43.6214ZM507.202 44.3667C507.063 43.3088 506.928 44.8584 507.025 45.6754C507.123 46.4914 507.245 44.6874 507.202 44.3667ZM508.838 43.617C508.663 42.7832 508.601 46.1758 508.805 45.4918C508.816 45.4531 508.848 43.6654 508.838 43.617ZM453.42 29.7123C453.431 29.6822 453.353 29.6174 453.339 29.6457C453.006 30.3305 453.161 30.4597 453.42 29.7123ZM510.447 42.7883C510.392 42.3291 510.227 42.8583 510.295 43.4293C510.35 43.8887 510.516 43.3595 510.447 42.7883ZM486.78 39.9003C486.786 39.8652 486.726 39.8179 486.681 40.0143C486.535 40.647 486.672 40.4911 486.78 39.9003ZM513.165 42.753C512.764 42.6253 512.522 39.8224 512.958 40.1388C513.037 40.196 512.788 41.0325 512.888 41.2852C513.072 41.7456 513.194 39.9858 513.383 40.9288C513.417 41.1014 513.188 42.7665 513.165 42.7569C513.165 42.7556 513.165 42.7543 513.165 42.753ZM492.862 40.7707C492.865 40.7391 492.776 40.6948 492.769 40.7254C492.599 41.4678 492.781 41.5579 492.862 40.7707ZM483.284 37.4593C483.297 37.3931 483.102 37.272 483.08 37.33C482.626 38.4924 483.022 38.7417 483.284 37.4593ZM499.377 39.7616C499.54 39.008 499.666 38.9276 499.673 39.8907C499.576 39.8321 499.475 39.8166 499.377 39.7616Z" fill="black"/>
<path d="M490.227 0.931154C491.371 1.29804 492.629 2.20927 493.528 3.02423C493.808 3.27768 493.447 3.5678 493.632 3.75944C493.993 4.13397 494.506 4.16708 494.848 4.56668C494.961 4.70114 494.471 5.20372 494.597 5.33106C495.277 6.01982 496.159 6.2851 496.922 6.84048C500.742 9.61006 504.703 11.9117 508.783 14.2638C510.12 15.035 511.557 16.4119 513.112 16.8594C513.294 16.9112 513.448 16.3312 513.501 16.3026C514.321 15.8696 513.642 16.8647 513.899 17.1619C514.94 18.3481 516.366 19.0736 517.718 19.4404C518.294 19.5945 518.242 18.2842 518.511 19.1286C518.53 19.1861 518.135 19.6943 518.255 19.8221C518.529 20.1115 519.198 20.2897 519.443 20.4529C519.905 20.7667 519.98 20.7931 520.454 21.0095C521.095 21.3082 521.744 21.928 522.487 22.0887C522.646 22.1213 522.699 21.4467 522.98 21.447C523.263 21.4487 523.86 21.7569 524.01 21.9821C524.166 22.2101 523.883 22.6391 523.877 22.7616C523.822 23.7952 525.045 22.8314 525.156 22.8391C527.061 22.9865 528.233 24.2476 529.827 24.7766C530.351 24.9492 530.902 25.073 531.434 25.1766C532.068 25.2936 532.7 25.3609 533.28 25.4791C534.488 25.7242 535.553 26.1313 536.793 26.0122C536.922 25.9997 536.732 25.2545 536.884 25.2374C538.492 25.0495 540.026 24.8068 541.713 24.6853C541.885 24.6721 541.933 25.3672 542.125 25.3881C542.319 25.406 542.539 25.4327 542.769 25.4488C543.877 25.5747 545.395 25.1928 544.349 22.9586C544.952 22.658 545.649 22.2128 546.513 22.1813C547.073 22.1548 547.292 22.9577 547.448 22.3614C547.482 22.228 546.922 21.8978 547.002 21.7347C547.337 21.0531 548.013 20.5728 548.178 19.806C548.209 19.6503 547.729 19.3458 547.67 19.254C547.191 18.5158 548.605 18.8577 548.759 18.7987C549.055 18.7009 549.278 18.5714 549.447 18.4273C549.681 18.229 549.814 17.9996 549.896 17.7894C549.976 17.5909 550.008 17.3561 550.002 17.3984C550 17.4229 549.811 17.4113 549.622 17.3752C549.432 17.3473 549.239 17.2875 549.216 17.4081C549.2 17.5194 549.176 17.6817 549.222 18.0171C549.274 18.3395 549.393 18.9246 549.965 19.5911C550.533 20.2708 551.478 20.6335 551.996 20.6776C552.538 20.7388 552.8 20.6725 552.983 20.6353C553.316 20.5494 553.335 20.5043 553.331 20.498C553.317 20.4907 553.245 20.5116 553.152 20.5463C552.942 20.6218 552.625 20.7625 552.291 20.8919C552.086 20.9717 551.798 20.3603 551.674 20.3772C551.116 20.4791 551.888 21.4367 551.385 21.5679C551.279 21.5984 550.92 21.1719 550.864 21.1419C549.973 20.6853 550.779 21.8083 550.757 21.8767C550.44 22.8246 548.967 22.3809 548.532 23.2569C548.482 23.3614 549.191 23.5941 549.021 23.8595C547.902 25.6193 546.546 27.3657 545.026 28.9513C544.791 29.1989 544.443 28.7383 544.376 28.7246C543.317 28.5422 544.409 29.3863 544.404 29.5047C544.399 29.5646 544.389 29.6214 544.374 29.6758C544.167 30.452 543.027 30.7228 544.151 31.8805C542.065 34.9241 541.384 38.825 538.465 41.6134C538.429 41.6503 537.859 41.2873 537.79 41.3619C536.966 42.2303 537.996 42.4873 538.823 43.7165C539.029 44.0287 537.386 43.8982 537.264 43.8912C536.809 43.8791 535.994 43.2733 535.894 43.2946C535.103 43.4819 538.105 44.85 537.8 45.4798C537.786 45.497 537.28 45.1493 537.2 45.1755C536.95 45.2561 537.087 45.5253 536.82 45.5962C536.201 45.7615 534.705 45.173 535.264 46.148C535.337 46.2723 537.067 46.9955 536.707 47.5212C536.567 47.7214 536.09 48.744 535.846 48.9581C535.597 49.1803 535.156 48.7179 535.123 48.7259C534.033 49.1117 533.878 48.6875 532.641 48.5146C531.408 48.3446 533.955 49.5213 534.156 49.8154C534.358 50.1076 533.486 50.3634 533.218 50.3834C532.947 50.4097 532.691 50.0698 532.516 50.1271C531.362 50.5157 533.574 51.1109 533.834 51.5758C534.442 52.6895 532.362 52.1768 531.882 52.6484C531.752 52.7751 532.236 52.874 532.205 53.0268C532.078 53.6276 531.332 53.6472 531.533 54.531C531.567 54.6727 532.407 55.7497 531.428 55.6318C531.287 55.6137 530.9 55.2393 530.675 55.4112C530.335 55.6738 529.917 56.2043 529.868 56.6541C529.833 56.984 530.751 57.0865 530.332 57.2981C530.145 57.3919 529.861 56.8725 529.547 57.0673C529.24 57.2511 528.869 57.9676 528.731 58.2499C528.595 58.5308 529.244 58.6968 529.27 58.7399C529.413 58.9975 529.404 59.6552 529.376 59.7022C529.199 60.0423 529 60.3699 528.785 60.6897C527.549 62.523 525.859 63.9526 525.023 65.9989C524.946 66.1855 525.603 66.4147 525.597 66.4467C525.497 67.1849 524.203 65.8004 523.436 65.9086C524.667 66.5484 524.307 66.667 524.19 67.1666C524.138 67.403 524.664 67.5665 524.701 67.6124C525.23 68.3207 524.2 67.9948 523.984 67.9386C523.185 67.7335 523.865 68.4239 523.329 68.2899C522.797 68.1577 522.309 67.4514 522.08 67.8582C522.441 68.2234 523.734 68.5832 523.734 68.9965C523.744 70.5439 521.597 72.1589 520.952 73.0266C520.317 73.8801 520.215 74.2261 519.738 74.6707C518.884 75.4586 519.919 75.605 519.935 76.4299C519.948 77.2588 518.1 75.7407 517.612 75.5634C517.126 75.3847 517.518 75.7486 517.214 75.7094C516.912 75.6699 516.754 75.2625 516.514 75.4559C516.277 75.6455 516.645 76.7825 517.046 77.1468C517.897 77.9169 519.093 78.2272 518.34 78.6645C518.296 78.6893 517.839 78.2437 517.697 78.355C516.596 79.2424 515.843 80.4176 514.793 81.3195C514.647 81.4442 514.142 80.9429 514.05 81.0113C513.093 81.7248 514.294 81.9987 515.079 83.1982C513.68 82.1793 512.607 81.9082 512.159 82.6168C511.888 83.043 512.575 83.3646 512.856 83.9225C512.94 84.0903 512.311 84.1247 512.578 84.3665C513.452 85.1575 514.732 85.5539 513.839 86.0167C513.798 86.0361 513.322 85.6 513.22 85.6913C512.561 86.2803 513.538 87.0042 513.176 87.8683C512.897 88.537 511.592 89.2382 511.055 89.8736C509.417 88.8345 509.387 89.7231 510.357 90.6972C510.03 91.119 509.786 91.6528 509.358 91.9894C509.212 92.1055 508.796 91.71 508.733 91.6967C507.745 91.4817 508.727 92.3665 508.71 92.4908C508.47 93.8108 507.097 94.1466 507.284 95.6654C507.291 95.7196 508.397 96.4929 507.393 96.2408C507.325 96.2222 507.014 95.5628 506.676 96.0132C506.338 96.4643 505.17 96.9659 505.285 97.9584C505.312 98.1973 505.984 99.1852 505.059 99.0504C504.934 99.0314 504.636 98.7789 504.415 98.7263C503.709 98.5616 504.794 99.3958 503.666 99.0153C502.538 98.635 501.496 98.6631 501.754 99.7535C501.76 99.7868 502.576 100.518 502.431 100.716C502.198 101.032 501.711 101.384 501.498 101.735C501.397 101.903 502.031 102.154 502.023 102.19C501.633 103.514 500.633 103.978 499.654 105.042C499.475 105.234 499.851 106.351 498.972 106.389C498.008 106.432 495.529 104.193 495.514 105.685C495.507 106.284 498.691 109.061 496.371 108.681C495.871 110.473 494.053 111.273 493.745 113.187C493.731 113.273 494.579 114.112 494.464 114.263C494.292 114.486 493.75 114.324 493.612 114.474C493.024 115.095 493.008 115.99 492.512 116.634C492.325 116.88 491.908 116.487 491.684 116.78C491.461 117.073 491.958 117.675 491.39 117.901C490.959 118.07 489.478 117.573 489.062 117.898C490.315 118.716 490.105 118.989 490.113 119.712C490.115 119.851 490.621 120.025 490.645 120.106C490.751 120.439 490.276 120.382 490.408 120.719C490.439 120.8 490.869 121.076 490.919 121.158C491.36 121.866 490.072 121.751 489.848 121.729C488.997 121.652 489.46 122.163 489.046 122.256C488.633 122.348 488.558 121.77 488.217 121.967C487.512 122.376 487.082 123.206 486.667 123.815C486.503 124.06 487.186 124.257 487.176 124.3C486.996 124.906 486.055 125.034 487.02 126.047C483.832 124.517 487.111 126.539 486.051 126.894C485.967 126.922 484.519 126.104 484.455 125.751C484.39 125.399 485.042 125.341 484.917 124.83C484.888 124.709 483.84 123.458 483.797 123.35C483.459 122.51 485.592 123.779 485.722 123.828C487.133 124.35 486.043 122.94 486.031 122.744C485.974 121.845 486.6 121.511 486.606 120.796C486.613 120.328 485.263 119.423 485.472 119.186C486.169 118.397 488.276 119.308 487.142 117.429C486.9 117.026 485.289 116.249 486.872 116.364C486.972 116.371 488.35 116.585 487.84 115.879C487.776 115.791 487.338 115.514 487.33 115.446C487.284 114.993 487.76 115.013 487.802 114.579C487.845 114.143 487.848 113.589 488.235 113.307C488.468 113.137 489.466 113.363 489.734 113.382C490.503 113.44 489.769 112.516 490.585 112.767C491.405 113.019 492.229 114.068 493 113.851C491.876 113.112 490.738 112.33 489.615 111.575C490.353 110.499 491.404 109.654 492.054 108.517C492.134 108.376 491.434 108.129 491.503 107.967C491.798 107.288 492.575 107.025 492.808 106.272C492.987 105.688 492.684 104.735 492.848 104.115C494.35 104.619 494.397 103.567 494.869 103.084C495.034 102.914 495.373 103.147 495.574 103.079C496.325 102.819 495.02 102.339 494.929 102.081C494.549 100.972 497.186 102.562 497.582 101.791C497.604 101.751 496.514 100.404 496.469 100.284C496.165 99.5167 496.995 100.521 497.26 100.328C497.746 99.9723 498.286 99.8504 498.229 99.0398C498.21 98.8021 497.589 97.8697 498.455 97.9783C498.569 97.9924 499.013 98.3041 499.061 98.2878C499.888 97.9678 498.457 97.0423 498.185 96.3908C497.913 95.7388 499.243 95.8343 499.597 95.9069C500.518 96.0913 499.779 96.3226 499.842 96.3839C500.596 97.1089 500.691 96.6275 500.949 96.3784C502.391 97.2249 502.566 96.7574 501.212 96.1164C501.063 96.0476 501.051 96.3596 500.949 96.3784C499.723 95.2491 499.834 94.6775 501.447 94.9886C502.203 95.1347 502.773 95.8017 502.962 94.9241C503.048 94.5266 501.995 94.0405 501.908 93.5886C501.712 92.5528 503.157 92.2676 503.434 91.5062C503.534 91.2297 502.852 91.1334 502.902 90.933C503.035 90.397 503.683 90.2525 503.756 89.678C503.762 89.6256 503.141 89.3752 503.221 89.232C503.808 88.1463 504.746 87.4397 505.434 86.3541C505.77 85.8242 506.054 84.6778 506.455 84.1698C507.153 83.2765 508.691 82.6123 508.999 81.6678C509.202 81.0549 508.568 80.8266 508.326 80.3626C507.856 79.4658 509.66 79.51 509.933 79.5272C509.942 79.528 509.79 80.0717 510.23 80.0023C510.919 80.2282 509.932 79.534 509.933 79.5272C510.109 79.5388 510.8 78.6987 510.803 78.4525C510.805 78.3179 510.239 78.0465 510.25 77.9826C510.524 76.4641 511.134 75.1616 512.144 74.0621C512.168 74.0468 512.745 74.4427 512.794 74.4022C513.495 73.8472 513.046 72.9384 512.972 72.0803C512.898 71.2223 513.321 70.85 514.565 71.1098C514.708 70.5794 515.549 70.21 516.045 70.0084C516.544 69.8029 515.409 69.0489 515.406 69.003C515.28 67.5374 516.293 67.3581 517.028 66.357C517.374 65.8924 517.8 64.7824 517.989 64.1675C518.136 63.6816 518.565 63.58 518.623 63.0776C518.631 63.0099 518.076 62.7585 518.065 62.7303C517.699 61.9211 518.853 62.8815 519.135 62.9233C520.16 63.0746 520.716 63.1379 520.66 62.3343C520.648 62.1489 519.026 60.6956 519.055 60.3965C519.096 60.0091 519.691 60.5073 519.716 60.0935C519.719 60.0579 519.306 59.8305 519.44 59.6399C520.06 58.7444 520.875 57.8711 521.378 56.883C521.448 56.7502 520.702 56.5496 520.792 56.3522C520.812 56.308 520.832 56.2637 520.853 56.2195C521.282 55.3091 521.829 54.4123 522.582 53.7376C522.777 53.567 523.162 53.9536 523.324 53.9823C524.302 54.1569 523.335 53.0774 523.348 52.9998C523.645 51.0889 525.402 50.4341 525.748 48.5107C525.765 48.405 524.825 47.0412 526.102 47.3101C526.186 47.3279 527.487 47.6135 526.844 46.9438C526.803 46.9014 526.117 46.7877 526.348 46.4876C526.584 46.1777 526.459 45.4533 527.341 45.323C527.619 45.281 528.94 45.5119 528.242 44.6251C528.193 44.5654 526.465 42.8542 528.007 43.3338C528.262 43.4101 529.749 44.2133 529.236 43.2998C529.135 43.1255 528.708 43.1393 528.627 42.7729C528.498 42.2159 529.166 41.8804 528.728 41.0626C528.648 40.9212 527.795 40.0559 528.719 40.1402C528.864 40.1535 529.33 40.4851 529.461 40.3578C530.086 39.7572 530.118 38.8104 530.821 38.23C531.07 38.0202 531.832 38.5421 532.184 38.3638C532.536 38.1877 533.013 37.7183 532.771 37.2494C532.527 36.7821 531.061 36.4966 531.158 36.0076C531.578 33.8885 533.208 32.3189 534.238 30.3636C534.391 30.0752 533.804 30.1073 534 29.6579C534.487 28.5353 535.087 26.6987 536.073 25.2853C536.522 24.6397 537.035 24.1123 537.603 23.8212C539.05 23.0939 538.777 24.8949 539.601 24.2006C539.994 23.8731 538.834 22.539 538.855 22.404C539.027 21.1081 540.117 20.8211 540.547 19.8125C540.637 19.6034 539.953 19.3857 540.037 19.2108C540.326 18.6014 540.989 18.2232 541.338 17.686C541.494 17.443 541.049 17.1644 541.25 16.9762C541.722 16.5312 542.262 16.2272 543.048 16.0722C543.119 16.0597 543.357 16.7734 543.685 16.4366C544.227 15.8799 545.219 15.5254 545.565 14.5105C545.672 14.2052 544.868 13.3139 545.918 13.4866C546.15 13.5174 546.908 14.7414 546.74 13.2768C546.736 13.1315 546.725 12.3679 547.145 11.7297C547.448 11.2566 548.044 10.8417 548.836 10.9832C549.434 11.1093 550.325 11.5752 552.864 11.45C553.048 11.4508 552.787 11.2601 552.753 11.0873C552.737 11.0009 552.777 10.9135 552.983 10.8614C553.181 10.8153 553.589 10.7784 554.38 10.9949C555.833 11.3391 557.626 12.744 558.324 14.0784C559.074 15.4064 559.188 16.377 559.262 17.0853C559.355 18.4543 559.181 19.1092 559.066 19.6962C558.807 20.8123 558.537 21.4591 558.337 22.1193C558.23 22.46 559.062 22.2783 558.875 22.7852C558.773 23.0599 558.652 23.3242 558.516 23.5828C557.987 24.5869 557.227 25.4482 556.549 26.0752C556.234 26.3646 555.971 25.7996 555.905 25.7886C554.847 25.5719 555.709 26.5928 555.663 26.7721C555.385 27.8391 554.411 28.0004 553.893 28.7652C553.745 28.9773 554.317 29.2887 554.321 29.3643C554.326 30.1318 553.815 29.0527 553.49 29.1993C552.579 29.6004 551.842 30.3181 551.126 30.9771C550.862 31.22 551.628 31.5468 551.379 31.7619C550.118 32.8615 548.534 33.8062 546.782 34.3075C546.51 34.3823 546.236 34.4459 545.963 34.4964C545.604 34.5606 545.602 33.9571 545.486 33.8665C544.706 33.221 544.464 34.5995 544.329 34.7662C543.763 35.514 543.322 35.1273 542.698 35.3912C539.603 36.7284 535.39 36.6123 532.384 35.9544C530.998 35.6734 529.754 35.268 528.586 34.8007C526.79 34.0394 525.201 33.2753 523.352 32.6699C523.173 32.6103 523.086 33.3734 522.927 33.3304C520.871 32.7355 519.065 31.6698 517.082 31.0445C516.92 30.9922 516.863 31.7364 516.594 31.6736C516.036 31.5482 515.396 31.2242 514.973 30.789C514.764 30.5771 515.35 30.1757 515.135 29.9738C514.63 29.5 514.038 29.1773 513.384 29.0031C513.111 28.933 513.193 29.7633 512.86 29.6205C510.572 28.6523 508.318 27.7209 506.489 25.7968C506.361 25.6637 506.867 24.28 506.423 24.3767C506.221 24.7307 506.013 25.1617 505.812 25.5476C502.492 24.192 499.576 22.1621 496.436 20.4753C496.305 20.405 496.182 21.214 495.926 21.0811C494.433 20.3075 492.876 19.7499 491.711 18.2789C491.594 18.1331 492.3 16.96 491.756 16.9112C491.661 16.9046 490.911 16.7215 490.6 16.8945C490.556 16.922 490.385 17.5517 490.16 17.4561C488.854 16.8873 487.608 16.0736 486.544 15.0771C486.372 14.9145 486.902 14.4253 486.782 14.3043C485.924 13.4484 484.583 13.3275 483.9 12.2709C483.446 11.5625 484.233 10.6498 484.427 9.44562C484.454 9.27574 484.063 9.04018 484.356 8.43432C485.091 6.91056 486.15 5.37593 486.911 3.73955C487.076 3.38744 486.34 3.4722 487.098 2.81128C487.15 2.76764 487.686 2.69833 487.93 2.46726C488.099 2.30782 488.298 1.6395 488.565 1.46211C488.832 1.28487 488.715 1.87074 489.093 1.69624C489.474 1.51787 489.738 0.777984 490.227 0.931154ZM518.282 69.0705C519.047 69.0631 517.021 67.7886 517.293 68.4503C517.309 68.4838 518.244 69.0717 518.282 69.0705ZM492.925 110.626C494.099 110.745 492.981 109.61 492.094 109.488C491.207 109.366 492.569 110.59 492.925 110.626ZM490.65 115.649C491.683 115.575 488.87 113.674 489.095 114.599C489.108 114.652 490.59 115.654 490.65 115.649ZM486.177 9.99509C486.187 9.96441 485.911 9.78407 485.889 9.80822C485.38 10.3993 485.934 10.7597 486.177 9.99509ZM488.451 120.674C488.941 120.757 488.791 120.006 488.181 119.902C487.691 119.817 487.84 120.569 488.451 120.674ZM530.841 52.1173C530.876 52.1282 531.015 51.934 530.834 51.8442C530.253 51.5549 530.261 51.9313 530.841 52.1173ZM483.538 128.468C484.377 127.388 487.184 128.197 486.122 129.278C485.929 129.473 485.678 128.31 485.282 128.462C484.558 128.742 485.819 130.038 484.681 130.07C484.473 130.075 483.485 128.527 483.536 128.464C483.537 128.466 483.537 128.467 483.538 128.468ZM520.868 70.3449C520.899 70.3553 521.091 70.0921 521.068 70.0687C520.505 69.5294 520.119 70.0588 520.868 70.3449ZM538.239 40.5497C538.307 40.5623 538.684 39.8991 538.636 39.8537C537.673 38.9763 536.914 40.3053 538.239 40.5497ZM511.005 89.8572C511.468 90.5587 511.322 90.9644 510.358 90.6963C510.587 90.4254 510.779 90.1303 511.005 89.8572Z" fill="black"/>
</svg>
