<svg width="492" height="785" viewBox="0 0 492 785" fill="none" xmlns="http://www.w3.org/2000/svg">
<g filter="url(#filter0_d_29_165)">
<path d="M358 114.5C495.804 114.5 607.5 224.199 607.5 359.5C607.5 494.801 495.804 604.5 358 604.5C220.196 604.5 108.5 494.801 108.5 359.5C108.5 224.199 220.196 114.5 358 114.5Z" stroke="white" shape-rendering="crispEdges"/>
</g>
<g filter="url(#filter1_d_29_165)">
<path d="M386 217.5C469.114 217.5 536.5 285.548 536.5 369.5C536.5 453.452 469.114 521.5 386 521.5C302.886 521.5 235.5 453.452 235.5 369.5C235.5 285.548 302.886 217.5 386 217.5Z" stroke="white" shape-rendering="crispEdges"/>
</g>
<g filter="url(#filter2_d_29_165)">
<path d="M358 0.5C553.19 0.5 711.5 174.169 711.5 388.5C711.5 602.831 553.19 776.5 358 776.5C162.81 776.5 4.5 602.831 4.5 388.5C4.5 174.169 162.81 0.5 358 0.5Z" stroke="white" shape-rendering="crispEdges"/>
</g>
<defs>
<filter id="filter0_d_29_165" x="104" y="114" width="508" height="499" filterUnits="userSpaceOnUse" color-interpolation-filters="sRGB">
<feFlood flood-opacity="0" result="BackgroundImageFix"/>
<feColorMatrix in="SourceAlpha" type="matrix" values="0 0 0 0 0 0 0 0 0 0 0 0 0 0 0 0 0 0 127 0" result="hardAlpha"/>
<feOffset dy="4"/>
<feGaussianBlur stdDeviation="2"/>
<feComposite in2="hardAlpha" operator="out"/>
<feColorMatrix type="matrix" values="0 0 0 0 0 0 0 0 0 0 0 0 0 0 0 0 0 0 0.25 0"/>
<feBlend mode="normal" in2="BackgroundImageFix" result="effect1_dropShadow_29_165"/>
<feBlend mode="normal" in="SourceGraphic" in2="effect1_dropShadow_29_165" result="shape"/>
</filter>
<filter id="filter1_d_29_165" x="231" y="217" width="310" height="313" filterUnits="userSpaceOnUse" color-interpolation-filters="sRGB">
<feFlood flood-opacity="0" result="BackgroundImageFix"/>
<feColorMatrix in="SourceAlpha" type="matrix" values="0 0 0 0 0 0 0 0 0 0 0 0 0 0 0 0 0 0 127 0" result="hardAlpha"/>
<feOffset dy="4"/>
<feGaussianBlur stdDeviation="2"/>
<feComposite in2="hardAlpha" operator="out"/>
<feColorMatrix type="matrix" values="0 0 0 0 0 0 0 0 0 0 0 0 0 0 0 0 0 0 0.25 0"/>
<feBlend mode="normal" in2="BackgroundImageFix" result="effect1_dropShadow_29_165"/>
<feBlend mode="normal" in="SourceGraphic" in2="effect1_dropShadow_29_165" result="shape"/>
</filter>
<filter id="filter2_d_29_165" x="0" y="0" width="716" height="785" filterUnits="userSpaceOnUse" color-interpolation-filters="sRGB">
<feFlood flood-opacity="0" result="BackgroundImageFix"/>
<feColorMatrix in="SourceAlpha" type="matrix" values="0 0 0 0 0 0 0 0 0 0 0 0 0 0 0 0 0 0 127 0" result="hardAlpha"/>
<feOffset dy="4"/>
<feGaussianBlur stdDeviation="2"/>
<feComposite in2="hardAlpha" operator="out"/>
<feColorMatrix type="matrix" values="0 0 0 0 0 0 0 0 0 0 0 0 0 0 0 0 0 0 0.25 0"/>
<feBlend mode="normal" in2="BackgroundImageFix" result="effect1_dropShadow_29_165"/>
<feBlend mode="normal" in="SourceGraphic" in2="effect1_dropShadow_29_165" result="shape"/>
</filter>
</defs>
</svg>
