<svg width="30" height="30" viewBox="0 0 30 30" fill="none" xmlns="http://www.w3.org/2000/svg">
<path d="M15 2.5V5" stroke="white" stroke-width="2" stroke-linecap="round" stroke-linejoin="round"/>
<path d="M18.5463 20.4813C18.2384 21.7802 17.5893 22.9734 16.6662 23.9377C15.743 24.902 14.5792 25.6024 13.2949 25.9667C12.0106 26.3309 10.6524 26.3458 9.36041 26.0097C8.06846 25.6736 6.88962 24.9988 5.9456 24.0549C5.00159 23.111 4.32661 21.9323 3.99035 20.6404C3.6541 19.3485 3.66876 17.9902 4.03282 16.7059C4.39689 15.4215 5.09715 14.2576 6.06132 13.3344C7.0255 12.4111 8.21863 11.7619 9.51753 11.4538C10.2975 11.27 10.73 12.2788 10.4113 13.0138C10.0134 13.9336 9.90111 14.9518 10.089 15.9363C10.2769 16.9208 10.7564 17.8261 11.4652 18.5347C12.1739 19.2433 13.0793 19.7226 14.0638 19.9103C15.0483 20.098 16.0665 19.9856 16.9863 19.5875C17.7225 19.2688 18.7313 19.7 18.5463 20.4813Z" stroke="white" stroke-width="2" stroke-linecap="round" stroke-linejoin="round"/>
<path d="M20 15C20 13.6739 19.4732 12.4021 18.5355 11.4645C17.5979 10.5268 16.3261 10 15 10" stroke="white" stroke-width="2" stroke-linecap="round" stroke-linejoin="round"/>
<path d="M23.7501 6.25L22.1801 7.82" stroke="white" stroke-width="2" stroke-linecap="round" stroke-linejoin="round"/>
<path d="M25 15H27.5" stroke="white" stroke-width="2" stroke-linecap="round" stroke-linejoin="round"/>
</svg>
