<svg width="1280" height="302" viewBox="0 0 1280 302" fill="none" xmlns="http://www.w3.org/2000/svg">
<path d="M-7 241.581L36.1333 211.451C79.2667 181.322 165.533 121.062 251.8 70.7828C338.067 21.2569 424.333 -20.1716 510.6 10.5232C596.867 40.088 683.133 141.776 769.4 171.341C855.667 202.036 941.933 160.607 1028.2 171.341C1114.47 181.322 1200.73 241.581 1243.87 271.711L1287 301.841H1243.87C1200.73 301.841 1114.47 301.841 1028.2 301.841C941.933 301.841 855.667 301.841 769.4 301.841C683.133 301.841 596.867 301.841 510.6 301.841C424.333 301.841 338.067 301.841 251.8 301.841C165.533 301.841 79.2667 301.841 36.1333 301.841H-7V241.581Z" fill="#93827C"/>
</svg>
